<svg xmlns="http://www.w3.org/2000/svg" width="267.88" height="66.85" viewBox="0 0 267.88 66.85"><defs><style>.cls-1{fill:#ccc;}</style></defs><title>arb_logo</title><g id="Layer_2" data-name="Layer 2"><g id="Layer_1-2" data-name="Layer 1"><path class="cls-1" d="M30,11.8a5.6,5.6,0,0,0-4.06,1.75,5.61,5.61,0,0,0-8.14,0,5.61,5.61,0,1,0,0,7.72,5.61,5.61,0,0,0,8.14,0A5.61,5.61,0,1,0,30,11.8"/><path class="cls-1" d="M43.62,50.18a5.62,5.62,0,0,0-4.27-5.44,5.61,5.61,0,0,0-.26-11,5.59,5.59,0,1,0-2.28,0,5.5,5.5,0,0,0-2.87,1.62,5.6,5.6,0,0,0-8,.09,5.61,5.61,0,0,0-8.14,0,5.61,5.61,0,1,0,0,7.72,5.61,5.61,0,0,0,8.14,0,5.59,5.59,0,0,0,8.13,0,5.64,5.64,0,0,0,2.63,1.5,5.61,5.61,0,0,0-.21,10.83,5.63,5.63,0,0,0-2.6,1.63,5.59,5.59,0,0,0-8,.18,5.61,5.61,0,0,0-8.14,0,5.61,5.61,0,1,0,0,7.72,5.61,5.61,0,0,0,8.14,0A5.58,5.58,0,0,0,34.11,65,5.56,5.56,0,0,0,38,66.57a5.61,5.61,0,0,0,1.57-11,5.62,5.62,0,0,0,4-5.39"/><path class="cls-1" d="M11.22,50.24a5.61,5.61,0,1,1-5.61-5.61,5.61,5.61,0,0,1,5.61,5.61"/><path class="cls-1" d="M78.66,11.56a5.58,5.58,0,0,0-4.19,1.89,5.6,5.6,0,0,0-8.29-.11,5.55,5.55,0,0,0-4.09-1.78A5.61,5.61,0,1,0,66.18,21a5.6,5.6,0,0,0,8.29-.11,5.61,5.61,0,1,0,4.19-9.33"/><path class="cls-1" d="M119.86,55.2a5.59,5.59,0,0,0-4.19,1.9,5.59,5.59,0,0,0-8.29-.12,5.59,5.59,0,0,0-8.37.21,5.62,5.62,0,0,0-3.07-1.51,5.6,5.6,0,0,0,0-11.09,5.61,5.61,0,0,0,.56-11A5.62,5.62,0,0,0,99.18,32a5.59,5.59,0,0,0,7.94-.24,5.59,5.59,0,0,0,8.29-.12,5.62,5.62,0,1,0,0-7.43,5.59,5.59,0,0,0-8.29-.12,5.59,5.59,0,0,0-8.14,0,5.64,5.64,0,0,0-2.9-1.45,5.61,5.61,0,0,0-.41-11,5.61,5.61,0,1,0-1.62,0,5.6,5.6,0,0,0-.13,11.07,5.6,5.6,0,0,0-.14,10.91,5.61,5.61,0,0,0,.55,11,5.6,5.6,0,0,0,0,11.09,5.61,5.61,0,1,0,5.09,9.18,5.58,5.58,0,0,0,8-.21,5.59,5.59,0,0,0,8.29-.12,5.61,5.61,0,1,0,4.19-9.33"/><path class="cls-1" d="M128.76,44.11a5.51,5.51,0,1,0-2.12,0,5.51,5.51,0,1,0,2.12,0"/><path class="cls-1" d="M59.86,39.1a5.56,5.56,0,0,0-4.49-5.46,5.57,5.57,0,1,0-2.15,0,5.57,5.57,0,0,0-.06,10.91,5.57,5.57,0,0,0,.06,10.91,5.57,5.57,0,1,0,2.15,0,5.56,5.56,0,0,0,.05-10.91,5.57,5.57,0,0,0,4.44-5.45"/><path class="cls-1" d="M155.16,0h2.92l6,15.69h-2.94l-1.48-4.15h-6.26L152,15.69h-2.83Zm-1,9.45H159L156.63,2.7h-.07Z"/><path class="cls-1" d="M165.15,4.33h2.36v2.2h0a2.48,2.48,0,0,1,.43-.9,4.19,4.19,0,0,1,.77-.81,4,4,0,0,1,1-.58A3.1,3.1,0,0,1,170.87,4l.6,0,.34,0V6.5l-.54-.07a4.91,4.91,0,0,0-.53,0,2.86,2.86,0,0,0-2.18,1,3.65,3.65,0,0,0-.66,1.22,5.34,5.34,0,0,0-.24,1.67v5.41h-2.51Z"/><path class="cls-1" d="M180.05,8.13a2.34,2.34,0,0,0-.84-1.59A2.77,2.77,0,0,0,177.46,6a3.54,3.54,0,0,0-1,.16,2.39,2.39,0,0,0-1,.62A3.38,3.38,0,0,0,174.65,8a5.89,5.89,0,0,0-.31,2.1,6.16,6.16,0,0,0,.16,1.41,3.9,3.9,0,0,0,.53,1.25,2.77,2.77,0,0,0,.94.89,2.62,2.62,0,0,0,1.38.34,2.52,2.52,0,0,0,1.81-.68,3.12,3.12,0,0,0,.89-1.91h2.51a5.54,5.54,0,0,1-1.68,3.39A5.12,5.12,0,0,1,177.35,16a5.81,5.81,0,0,1-2.36-.45,5,5,0,0,1-1.73-1.23,5.17,5.17,0,0,1-1.06-1.86,7.29,7.29,0,0,1-.37-2.33,7.72,7.72,0,0,1,.36-2.39,5.4,5.4,0,0,1,1.05-1.95A5,5,0,0,1,175,4.49,6,6,0,0,1,177.44,4a7.23,7.23,0,0,1,1.88.25A5.15,5.15,0,0,1,180.9,5,4,4,0,0,1,182,6.31a4.41,4.41,0,0,1,.53,1.82Z"/><path class="cls-1" d="M184.49,0H187V5.82h0a3.69,3.69,0,0,1,1.37-1.28,4,4,0,0,1,2-.52,4.22,4.22,0,0,1,2.94,1,3.69,3.69,0,0,1,1.08,2.9v7.8H192V8.55a3.14,3.14,0,0,0-.57-2,2.08,2.08,0,0,0-1.65-.6,2.8,2.8,0,0,0-1.14.23,2.49,2.49,0,0,0-.86.64,3.29,3.29,0,0,0-.55,1A3.5,3.5,0,0,0,187,9v6.7h-2.51Z"/><path class="cls-1" d="M197.06,0h2.5V2.37h-2.5Zm0,4.33h2.5V15.69h-2.5Z"/><path class="cls-1" d="M201,4.33h1.89V.92h2.5V4.33h2.27V6.2h-2.27v6.06a4.44,4.44,0,0,0,0,.68,1.23,1.23,0,0,0,.15.49.7.7,0,0,0,.36.29,1.7,1.7,0,0,0,.66.1h.53a2.52,2.52,0,0,0,.53-.08v1.94l-.82.09c-.26,0-.53,0-.81,0a5.31,5.31,0,0,1-1.59-.19,2,2,0,0,1-.95-.55,1.83,1.83,0,0,1-.46-.91,6.44,6.44,0,0,1-.14-1.25V6.2H201Z"/><path class="cls-1" d="M211.34,10.66a4.49,4.49,0,0,0,.19,1.27,3.09,3.09,0,0,0,.56,1.08,2.71,2.71,0,0,0,.95.74,3.14,3.14,0,0,0,1.36.27,3.06,3.06,0,0,0,1.77-.47,2.86,2.86,0,0,0,1-1.42h2.37a4.75,4.75,0,0,1-.68,1.65A4.69,4.69,0,0,1,217.69,15a5,5,0,0,1-1.52.75,6.52,6.52,0,0,1-1.77.25,6.09,6.09,0,0,1-2.38-.44,4.83,4.83,0,0,1-1.74-1.23,5.19,5.19,0,0,1-1.08-1.89,7.73,7.73,0,0,1-.36-2.42,7.07,7.07,0,0,1,.38-2.3,6.12,6.12,0,0,1,1.1-1.91,5.19,5.19,0,0,1,1.73-1.3,5.51,5.51,0,0,1,4.69.07,5.43,5.43,0,0,1,1.77,1.48,6,6,0,0,1,1,2.13,6.38,6.38,0,0,1,.16,2.47ZM217.19,9a4.29,4.29,0,0,0-.25-1.14,2.9,2.9,0,0,0-.58-1,2.86,2.86,0,0,0-.87-.66A2.6,2.6,0,0,0,214.33,6a3.09,3.09,0,0,0-1.2.23,2.72,2.72,0,0,0-.92.64,3,3,0,0,0-.61,1A3.33,3.33,0,0,0,211.34,9Z"/><path class="cls-1" d="M229.16,8.13a2.34,2.34,0,0,0-.84-1.59A2.77,2.77,0,0,0,226.57,6a3.54,3.54,0,0,0-1,.16,2.46,2.46,0,0,0-1,.62A3.38,3.38,0,0,0,223.76,8a5.89,5.89,0,0,0-.31,2.1,6.18,6.18,0,0,0,.17,1.41,3.88,3.88,0,0,0,.52,1.25,2.86,2.86,0,0,0,.94.89,2.62,2.62,0,0,0,1.38.34,2.52,2.52,0,0,0,1.81-.68,3.12,3.12,0,0,0,.89-1.91h2.51A5.54,5.54,0,0,1,230,14.82,5.11,5.11,0,0,1,226.46,16a5.81,5.81,0,0,1-2.36-.45,5,5,0,0,1-1.73-1.23,5.32,5.32,0,0,1-1.06-1.86,7.29,7.29,0,0,1-.36-2.33,7.72,7.72,0,0,1,.35-2.39,5.4,5.4,0,0,1,1-1.95,5,5,0,0,1,1.75-1.3A6,6,0,0,1,226.55,4a7.23,7.23,0,0,1,1.88.25A5.15,5.15,0,0,1,230,5a4,4,0,0,1,1.13,1.28,4.41,4.41,0,0,1,.53,1.82Z"/><path class="cls-1" d="M232.46,4.33h1.89V.92h2.5V4.33h2.27V6.2h-2.27v6.06a6.23,6.23,0,0,0,0,.68,1.23,1.23,0,0,0,.15.49.7.7,0,0,0,.36.29,1.76,1.76,0,0,0,.66.1h.53a2.43,2.43,0,0,0,.53-.08v1.94l-.81.09c-.27,0-.54,0-.82,0a5.31,5.31,0,0,1-1.59-.19,2.06,2.06,0,0,1-1-.55,1.92,1.92,0,0,1-.46-.91,6.44,6.44,0,0,1-.14-1.25V6.2h-1.89Z"/><path class="cls-1" d="M242.7,12a1.87,1.87,0,0,0,.84,1.54,3.29,3.29,0,0,0,1.73.44c.24,0,.5,0,.8,0a3.78,3.78,0,0,0,.85-.21,1.8,1.8,0,0,0,.65-.45,1.1,1.1,0,0,0,.23-.78,1.14,1.14,0,0,0-.35-.8,2.68,2.68,0,0,0-.85-.49,9,9,0,0,0-1.18-.32l-1.34-.28c-.46-.11-.92-.23-1.35-.38a4.09,4.09,0,0,1-1.16-.59,2.76,2.76,0,0,1-.83-1,3.1,3.1,0,0,1-.3-1.44,2.55,2.55,0,0,1,.45-1.54,3.49,3.49,0,0,1,1.14-1,5,5,0,0,1,1.54-.53A8.36,8.36,0,0,1,245.18,4a7,7,0,0,1,1.68.19,4.36,4.36,0,0,1,1.45.6,3.41,3.41,0,0,1,1.08,1.09,3.7,3.7,0,0,1,.54,1.62h-2.62a1.54,1.54,0,0,0-.82-1.21A3.35,3.35,0,0,0,245,6a5.06,5.06,0,0,0-.63,0,3,3,0,0,0-.68.17,1.53,1.53,0,0,0-.54.35.82.82,0,0,0-.22.6,1,1,0,0,0,.32.75,2.4,2.4,0,0,0,.84.47,7.68,7.68,0,0,0,1.18.32l1.36.29c.46.1.91.23,1.35.37a4.82,4.82,0,0,1,1.18.59,3.08,3.08,0,0,1,.84,1,2.88,2.88,0,0,1,.32,1.41,3,3,0,0,1-.47,1.71,3.64,3.64,0,0,1-1.2,1.14,5.24,5.24,0,0,1-1.64.64,8.37,8.37,0,0,1-1.78.2,7.89,7.89,0,0,1-2-.24,4.7,4.7,0,0,1-1.58-.74,3.58,3.58,0,0,1-1.06-1.23,3.93,3.93,0,0,1-.4-1.75Z"/><path class="cls-1" d="M149.14,25.06h7.49a5.81,5.81,0,0,1,3.89,1.13,3.89,3.89,0,0,1,1.29,3.11,4.74,4.74,0,0,1-.32,1.86,4.15,4.15,0,0,1-.77,1.19,3.38,3.38,0,0,1-.87.65,6.71,6.71,0,0,1-.63.26v0a3.05,3.05,0,0,1,.76.22,2.44,2.44,0,0,1,.76.56,3.1,3.1,0,0,1,.58,1,4.54,4.54,0,0,1,.23,1.54,14,14,0,0,0,.21,2.52,3.24,3.24,0,0,0,.65,1.61h-2.95a2.64,2.64,0,0,1-.36-1.12c0-.41,0-.8,0-1.18a11,11,0,0,0-.14-1.86,3.09,3.09,0,0,0-.48-1.3,2,2,0,0,0-1-.75,4,4,0,0,0-1.54-.25h-4.05v6.46h-2.74Zm2.74,7.15h4.51a2.86,2.86,0,0,0,2-.63,2.44,2.44,0,0,0,.68-1.88,3,3,0,0,0-.22-1.22,1.86,1.86,0,0,0-.61-.74,2.31,2.31,0,0,0-.87-.35,6.93,6.93,0,0,0-1-.08h-4.46Z"/><path class="cls-1" d="M166.1,35.72a4.22,4.22,0,0,0,.19,1.28,3,3,0,0,0,.56,1.07,2.65,2.65,0,0,0,.94.74,3.17,3.17,0,0,0,1.36.27,3,3,0,0,0,1.77-.47,2.76,2.76,0,0,0,1-1.42h2.38a4.79,4.79,0,0,1-1.85,2.87,5,5,0,0,1-1.53.75,6.06,6.06,0,0,1-1.77.25,5.89,5.89,0,0,1-2.37-.44A4.87,4.87,0,0,1,165,39.39,5.32,5.32,0,0,1,164,37.5a7.73,7.73,0,0,1-.37-2.42,6.72,6.72,0,0,1,.39-2.29,5.65,5.65,0,0,1,1.1-1.91,5.18,5.18,0,0,1,1.72-1.31,5.3,5.3,0,0,1,2.29-.48,5,5,0,0,1,2.4.56,5.2,5.2,0,0,1,1.77,1.48,5.88,5.88,0,0,1,1,2.12,6.39,6.39,0,0,1,.17,2.47Zm5.84-1.65a4.08,4.08,0,0,0-.25-1.14,3.3,3.3,0,0,0-.57-1,2.62,2.62,0,0,0-.88-.65,2.56,2.56,0,0,0-1.15-.26,3.09,3.09,0,0,0-1.2.23,2.76,2.76,0,0,0-.92.64,3.17,3.17,0,0,0-.62,1,3.27,3.27,0,0,0-.25,1.18Z"/><path class="cls-1" d="M186.76,40.16A4.86,4.86,0,0,1,185.32,44a6.11,6.11,0,0,1-4.15,1.26,8.45,8.45,0,0,1-1.72-.18,4.83,4.83,0,0,1-1.58-.59,3.71,3.71,0,0,1-1.2-1.1,3.36,3.36,0,0,1-.57-1.67h2.5a2.07,2.07,0,0,0,.38.86,1.79,1.79,0,0,0,.62.51,2.34,2.34,0,0,0,.8.25c.3,0,.61,0,.93,0a2.92,2.92,0,0,0,2.22-.75,3,3,0,0,0,.7-2.15V38.75h0a4,4,0,0,1-1.44,1.48,3.9,3.9,0,0,1-2,.52,5.13,5.13,0,0,1-2.32-.47A4.35,4.35,0,0,1,176.9,39a5.32,5.32,0,0,1-.91-1.9,8.89,8.89,0,0,1-.29-2.3,6.87,6.87,0,0,1,.35-2.18,5.8,5.8,0,0,1,1-1.81,4.74,4.74,0,0,1,1.62-1.24,4.89,4.89,0,0,1,2.16-.46,4.36,4.36,0,0,1,2,.45A3.11,3.11,0,0,1,184.21,31h0V29.39h2.51Zm-5.56-1.38a2.73,2.73,0,0,0,1.41-.35,2.64,2.64,0,0,0,.95-.9,3.92,3.92,0,0,0,.53-1.27,6.42,6.42,0,0,0,.16-1.44,5.56,5.56,0,0,0-.18-1.41,3.63,3.63,0,0,0-.53-1.2,2.65,2.65,0,0,0-.95-.84,3,3,0,0,0-1.39-.31,2.68,2.68,0,0,0-1.41.35,2.79,2.79,0,0,0-.92.92,3.76,3.76,0,0,0-.51,1.27,6.92,6.92,0,0,0-.15,1.42,5.65,5.65,0,0,0,.17,1.37,3.86,3.86,0,0,0,.54,1.2,2.91,2.91,0,0,0,.92.86,2.66,2.66,0,0,0,1.36.33"/><path class="cls-1" d="M189.24,25.06h2.5v2.38h-2.5Zm0,4.33h2.5V40.75h-2.5Z"/><path class="cls-1" d="M196.25,37.11a1.87,1.87,0,0,0,.83,1.53,3.24,3.24,0,0,0,1.74.44,6,6,0,0,0,.8,0,3.92,3.92,0,0,0,.85-.21,1.59,1.59,0,0,0,.65-.45,1.15,1.15,0,0,0,.23-.78,1.13,1.13,0,0,0-.36-.79,2.47,2.47,0,0,0-.84-.5A8.05,8.05,0,0,0,199,36l-1.34-.29a13.29,13.29,0,0,1-1.35-.37,4.39,4.39,0,0,1-1.16-.6,2.72,2.72,0,0,1-.83-.95,3.13,3.13,0,0,1-.31-1.44,2.58,2.58,0,0,1,.45-1.55,3.49,3.49,0,0,1,1.15-1,4.77,4.77,0,0,1,1.54-.54,9.19,9.19,0,0,1,1.61-.15,7.59,7.59,0,0,1,1.68.18,4.59,4.59,0,0,1,1.45.61A3.71,3.71,0,0,1,202.94,31a4,4,0,0,1,.54,1.62h-2.62a1.58,1.58,0,0,0-.82-1.21,3.51,3.51,0,0,0-1.49-.31,5.28,5.28,0,0,0-.62.05,2.94,2.94,0,0,0-.68.16,1.44,1.44,0,0,0-.54.35.85.85,0,0,0-.22.61,1,1,0,0,0,.32.75,2.57,2.57,0,0,0,.84.47,8.61,8.61,0,0,0,1.18.32c.44.08.89.18,1.36.28a12.91,12.91,0,0,1,1.35.38,4.21,4.21,0,0,1,1.18.59,2.89,2.89,0,0,1,.83.94,2.78,2.78,0,0,1,.32,1.41,3,3,0,0,1-.46,1.71,3.77,3.77,0,0,1-1.2,1.15,5.48,5.48,0,0,1-1.64.63,8.24,8.24,0,0,1-3.78,0,4.53,4.53,0,0,1-1.58-.74,3.58,3.58,0,0,1-1.06-1.23,3.92,3.92,0,0,1-.41-1.74Z"/><path class="cls-1" d="M204.51,29.39h1.89V26h2.5v3.4h2.27v1.87H208.9v6.07a6.39,6.39,0,0,0,0,.68,1.13,1.13,0,0,0,.15.48.77.77,0,0,0,.36.3,2,2,0,0,0,.66.1h.53a3.23,3.23,0,0,0,.53-.08v1.93l-.81.09a7.38,7.38,0,0,1-.82,0,5.7,5.7,0,0,1-1.59-.18,2.25,2.25,0,0,1-.95-.55,2,2,0,0,1-.46-.91A6.64,6.64,0,0,1,206.4,38v-6.7h-1.89Z"/><path class="cls-1" d="M212.86,29.39h2.35v2.2h0a2.66,2.66,0,0,1,.43-.9,4.2,4.2,0,0,1,1.77-1.39,3.13,3.13,0,0,1,1.12-.21,4.49,4.49,0,0,1,.61,0l.34,0v2.42l-.54-.08a4.89,4.89,0,0,0-.54,0,2.9,2.9,0,0,0-1.2.25,2.7,2.7,0,0,0-1,.75,3.56,3.56,0,0,0-.66,1.22,5.3,5.3,0,0,0-.24,1.67v5.4h-2.51Z"/><path class="cls-1" d="M230,38.23a1.38,1.38,0,0,0,.12.66.51.51,0,0,0,.47.19h.27a1.56,1.56,0,0,0,.35,0v1.74l-.34.09-.43.1L230,41l-.37,0a2.38,2.38,0,0,1-1.28-.31,1.5,1.5,0,0,1-.66-1.07,4.49,4.49,0,0,1-1.83,1,7.27,7.27,0,0,1-2.1.33,5.12,5.12,0,0,1-1.47-.21,3.78,3.78,0,0,1-1.24-.61,2.91,2.91,0,0,1-.86-1,3.18,3.18,0,0,1-.32-1.46,3.44,3.44,0,0,1,.38-1.71,2.93,2.93,0,0,1,1-1,4.59,4.59,0,0,1,1.41-.54,14.23,14.23,0,0,1,1.57-.25c.46-.09.89-.15,1.3-.19a6.3,6.3,0,0,0,1.09-.19,1.61,1.61,0,0,0,.74-.41,1.07,1.07,0,0,0,.28-.82,1.32,1.32,0,0,0-.23-.79,1.71,1.71,0,0,0-.57-.47,2.32,2.32,0,0,0-.76-.22,5.56,5.56,0,0,0-.79-.06,3.16,3.16,0,0,0-1.74.44,1.74,1.74,0,0,0-.77,1.36h-2.5a3.82,3.82,0,0,1,.52-1.82A3.63,3.63,0,0,1,222,29.88a4.74,4.74,0,0,1,1.61-.62,9.51,9.51,0,0,1,1.85-.17,7.58,7.58,0,0,1,1.65.17,4.83,4.83,0,0,1,1.46.57,3.27,3.27,0,0,1,1,1,2.77,2.77,0,0,1,.4,1.53Zm-2.51-3.17a3,3,0,0,1-1.4.45c-.56.05-1.12.13-1.67.23a6.19,6.19,0,0,0-.77.19,2.27,2.27,0,0,0-.66.33,1.44,1.44,0,0,0-.45.55,1.87,1.87,0,0,0-.17.82,1,1,0,0,0,.25.71,1.71,1.71,0,0,0,.58.45A2.75,2.75,0,0,0,224,39a5,5,0,0,0,.73.06,3.68,3.68,0,0,0,.9-.11,2.77,2.77,0,0,0,.91-.37,2.43,2.43,0,0,0,.72-.67,1.69,1.69,0,0,0,.28-1Z"/><path class="cls-1" d="M231.45,29.39h1.89V26h2.5v3.4h2.27v1.87h-2.27v6.07a6.39,6.39,0,0,0,0,.68,1.13,1.13,0,0,0,.15.48.77.77,0,0,0,.36.3,1.91,1.91,0,0,0,.66.1h.53a3.23,3.23,0,0,0,.53-.08v1.93l-.82.09a7.09,7.09,0,0,1-.81,0,5.7,5.7,0,0,1-1.59-.18,2.25,2.25,0,0,1-.95-.55,2,2,0,0,1-.46-.91,6.64,6.64,0,0,1-.14-1.26v-6.7h-1.89Z"/><path class="cls-1" d="M239.87,25.06h2.5v2.38h-2.5Zm0,4.33h2.5V40.75h-2.5Z"/><path class="cls-1" d="M250.19,41.06a6.14,6.14,0,0,1-2.42-.45A5.08,5.08,0,0,1,246,39.37a5.42,5.42,0,0,1-1.12-1.89,7.44,7.44,0,0,1-.38-2.42,7.35,7.35,0,0,1,.38-2.39A5.33,5.33,0,0,1,246,30.78a5.08,5.08,0,0,1,1.81-1.24,6.76,6.76,0,0,1,4.85,0,5.13,5.13,0,0,1,1.8,1.24,5.19,5.19,0,0,1,1.12,1.89,7.09,7.09,0,0,1,.39,2.39,7.18,7.18,0,0,1-.39,2.42,5.27,5.27,0,0,1-1.12,1.89,5.13,5.13,0,0,1-1.8,1.24,6.19,6.19,0,0,1-2.43.45m0-2a2.81,2.81,0,0,0,1.45-.35,3,3,0,0,0,1-.92,4,4,0,0,0,.59-1.29,5.9,5.9,0,0,0,.18-1.46,6.06,6.06,0,0,0-.18-1.45,3.85,3.85,0,0,0-.59-1.28,3.08,3.08,0,0,0-1-.92,3.18,3.18,0,0,0-2.9,0,3.18,3.18,0,0,0-1,.92,3.84,3.84,0,0,0-.58,1.28,6.08,6.08,0,0,0-.19,1.45,5.9,5.9,0,0,0,.19,1.46,4,4,0,0,0,.58,1.29,3.07,3.07,0,0,0,1,.92,2.83,2.83,0,0,0,1.45.35"/><path class="cls-1" d="M257.91,29.39h2.37v1.67l0,.05a4.2,4.2,0,0,1,1.5-1.49,4,4,0,0,1,2-.53,4.28,4.28,0,0,1,2.95,1,3.73,3.73,0,0,1,1.07,2.9v7.8h-2.5V33.61a3.09,3.09,0,0,0-.57-1.94,2.08,2.08,0,0,0-1.65-.61,2.73,2.73,0,0,0-1.14.23,2.52,2.52,0,0,0-.86.64,2.84,2.84,0,0,0-.55,1,3.41,3.41,0,0,0-.2,1.16v6.7h-2.5Z"/><path class="cls-1" d="M149.14,50.76h7.62a5.46,5.46,0,0,1,3.39,1,3.45,3.45,0,0,1,1.27,2.92,3.54,3.54,0,0,1-.58,2A3.72,3.72,0,0,1,159.18,58v0a3.41,3.41,0,0,1,2.19,1.38,4.52,4.52,0,0,1,.75,2.67,4.47,4.47,0,0,1-.33,1.72,3.49,3.49,0,0,1-1,1.39,5.44,5.44,0,0,1-1.8.92,8.82,8.82,0,0,1-2.62.34h-7.2Zm2.74,6.57h4.48a2.48,2.48,0,0,0,1.65-.56,2,2,0,0,0,.66-1.62,2.07,2.07,0,0,0-.59-1.67,2.69,2.69,0,0,0-1.72-.48h-4.48Zm0,6.88h4.86a2.74,2.74,0,0,0,1.94-.65,2.36,2.36,0,0,0,.7-1.84,2.28,2.28,0,0,0-.7-1.79,2.82,2.82,0,0,0-1.94-.62h-4.86Z"/><path class="cls-1" d="M169.35,66.76a6.19,6.19,0,0,1-2.43-.45,5.15,5.15,0,0,1-1.8-1.25A5.24,5.24,0,0,1,164,63.17a7.8,7.8,0,0,1,0-4.81,5.42,5.42,0,0,1,1.12-1.89,5.26,5.26,0,0,1,1.8-1.24,6.79,6.79,0,0,1,4.86,0,5.11,5.11,0,0,1,2.92,3.13,7.61,7.61,0,0,1,0,4.81,5.16,5.16,0,0,1-2.92,3.14,6.19,6.19,0,0,1-2.43.45m0-2a2.91,2.91,0,0,0,1.45-.35,3,3,0,0,0,1-.93,3.82,3.82,0,0,0,.58-1.28,5.67,5.67,0,0,0,0-2.91,3.62,3.62,0,0,0-.58-1.29,3.05,3.05,0,0,0-1-.91,3.18,3.18,0,0,0-2.9,0,3.05,3.05,0,0,0-1,.91,3.8,3.8,0,0,0-.58,1.29,5.67,5.67,0,0,0,0,2.91,4,4,0,0,0,.58,1.28,3,3,0,0,0,1,.93,2.94,2.94,0,0,0,1.45.35"/><path class="cls-1" d="M186.58,63.92a1.33,1.33,0,0,0,.12.66.51.51,0,0,0,.47.2h.27a1.63,1.63,0,0,0,.35,0v1.74l-.34.1-.43.1a3.32,3.32,0,0,1-.44.06l-.37,0a2.47,2.47,0,0,1-1.28-.31,1.52,1.52,0,0,1-.66-1.08,4.4,4.4,0,0,1-1.83,1.06,7.27,7.27,0,0,1-2.1.33,5.12,5.12,0,0,1-1.47-.21,3.8,3.8,0,0,1-1.24-.62,2.88,2.88,0,0,1-.86-1,3.2,3.2,0,0,1-.32-1.46,3.48,3.48,0,0,1,.38-1.72,3,3,0,0,1,1-1,4.59,4.59,0,0,1,1.41-.54c.52-.11,1.05-.19,1.57-.25s.89-.15,1.3-.19a6.35,6.35,0,0,0,1.09-.18,1.7,1.7,0,0,0,.74-.41,1.09,1.09,0,0,0,.28-.82,1.28,1.28,0,0,0-.23-.79,1.63,1.63,0,0,0-.57-.48,2.58,2.58,0,0,0-.76-.22,7.45,7.45,0,0,0-.79-.05,3.16,3.16,0,0,0-1.74.44,1.73,1.73,0,0,0-.77,1.36h-2.5a3.79,3.79,0,0,1,.52-1.82,3.66,3.66,0,0,1,1.18-1.17,4.72,4.72,0,0,1,1.61-.61,9.51,9.51,0,0,1,1.85-.18,7.58,7.58,0,0,1,1.65.18,4.36,4.36,0,0,1,1.46.57,3.08,3.08,0,0,1,1,1,2.77,2.77,0,0,1,.4,1.53Zm-2.51-3.16a3,3,0,0,1-1.4.45c-.56,0-1.12.13-1.67.23a4.81,4.81,0,0,0-.77.19,2.27,2.27,0,0,0-.66.33,1.44,1.44,0,0,0-.45.55,1.84,1.84,0,0,0-.17.82,1,1,0,0,0,.25.7,1.71,1.71,0,0,0,.58.45,2.53,2.53,0,0,0,.75.23,4,4,0,0,0,.73.07,4.25,4.25,0,0,0,.9-.11,3,3,0,0,0,.91-.37,2.43,2.43,0,0,0,.72-.67,1.73,1.73,0,0,0,.28-1Z"/><path class="cls-1" d="M189.17,55.09h2.35v2.2h0a2.44,2.44,0,0,1,.43-.91A4.12,4.12,0,0,1,193.76,55a3,3,0,0,1,1.13-.22l.6,0,.34.05v2.41l-.54-.07a4.9,4.9,0,0,0-.54,0,2.83,2.83,0,0,0-1.19.26,2.6,2.6,0,0,0-1,.74,3.65,3.65,0,0,0-.66,1.22,5.34,5.34,0,0,0-.24,1.67v5.41h-2.51Z"/><path class="cls-1" d="M207.1,66.45h-2.37V64.91h0a3,3,0,0,1-1.48,1.42,5,5,0,0,1-2,.43,5.37,5.37,0,0,1-2.34-.48A4.6,4.6,0,0,1,197.17,65a5.47,5.47,0,0,1-1-1.92,8.37,8.37,0,0,1-.33-2.39,7.62,7.62,0,0,1,.42-2.66,5.38,5.38,0,0,1,1.11-1.84A4.27,4.27,0,0,1,199,55.12a5,5,0,0,1,1.81-.34,5.71,5.71,0,0,1,1.08.1,4.81,4.81,0,0,1,1.06.32,4,4,0,0,1,.93.56,3,3,0,0,1,.71.8h0v-5.8h2.5Zm-8.74-5.56a5.78,5.78,0,0,0,.18,1.43,4.2,4.2,0,0,0,.57,1.25,3,3,0,0,0,1,.88,2.88,2.88,0,0,0,1.41.33,2.84,2.84,0,0,0,1.44-.35,3,3,0,0,0,1-.93,4.5,4.5,0,0,0,.57-1.28,6,6,0,0,0,.19-1.46,4.64,4.64,0,0,0-.85-2.95,2.79,2.79,0,0,0-2.3-1.05,2.85,2.85,0,0,0-1.48.36,3.1,3.1,0,0,0-1,1,3.75,3.75,0,0,0-.55,1.31,7,7,0,0,0-.16,1.51"/></g></g></svg>