<svg xmlns="http://www.w3.org/2000/svg" width="679.79" height="678.33" viewBox="0 0 679.79 678.33"><defs><style>.cls-1{fill:#666;}</style></defs><title>brand_stamp</title><g id="Layer_2" data-name="Layer 2"><g id="Layer_1-2" data-name="Layer 1"><path class="cls-1" d="M191.58,644l-9.2-4.58,33.81-67.8,9.19,4.59Z"/><path class="cls-1" d="M133.54,610.45,114,592.71a48.62,48.62,0,0,1-9.21-10.79,37.26,37.26,0,0,1-4.51-10.64,30.78,30.78,0,0,1-.77-10.15,37.7,37.7,0,0,1,2-9.16,41.79,41.79,0,0,1,3.78-7.84,44.73,44.73,0,0,1,4.61-6.21,38.27,38.27,0,0,1,11.43-8.64,35.68,35.68,0,0,1,14-3.65,39.11,39.11,0,0,1,15.35,2.42,46.45,46.45,0,0,1,15.44,9.65l18.33,16.58Zm36.76-55.92-9.6-8.69a42,42,0,0,0-10.35-7,29.71,29.71,0,0,0-11.13-2.93,25.46,25.46,0,0,0-11.08,1.87A28,28,0,0,0,118,545.24a37.11,37.11,0,0,0-4.84,7.1,25.55,25.55,0,0,0-2.92,9.84,26.2,26.2,0,0,0,1.72,11.58q2.24,6.15,9.06,12.32l11.42,10.34Z"/><path class="cls-1" d="M50.32,519.33,27,476.33l8.47-4.58,18.39,34L73.75,495,56.63,463.35l8.47-4.59,17.12,31.62,21.36-11.57L84.26,443.15l8.47-4.58,24.2,44.69Z"/><path class="cls-1" d="M3.6,397.39l-1.55-9.18,69.29-44.6,2,11.82L56.14,366l6,35.56,19.72,4.26,2,11.82Zm44.31-26.16L16,391l0,.21,36.68,8.34Z"/><path class="cls-1" d="M58.61,311.37a16.91,16.91,0,0,0,7.17-6.1,21.34,21.34,0,0,0,3.32-8.52,18.16,18.16,0,0,0,0-5.31,15.91,15.91,0,0,0-1.63-5.18,13.22,13.22,0,0,0-3.37-4.14,10.42,10.42,0,0,0-5.18-2.21,8.16,8.16,0,0,0-7,1.73A24.07,24.07,0,0,0,47,287.87q-2.16,3.84-4.33,8.43a36.87,36.87,0,0,1-5.34,8.27,22,22,0,0,1-7.87,5.76q-4.71,2.1-12,1a20.13,20.13,0,0,1-12.83-8,25.08,25.08,0,0,1-3.91-8.67,29.78,29.78,0,0,1-.28-11.9A40.59,40.59,0,0,1,4,271.21a20.36,20.36,0,0,1,8.39-8.78l6.23,9.41A13.84,13.84,0,0,0,13,276.5a17.38,17.38,0,0,0-3,7.65,19.45,19.45,0,0,0,0,7.21,13.06,13.06,0,0,0,2.16,4.93,10.25,10.25,0,0,0,3.39,3,11.69,11.69,0,0,0,3.6,1.26q4.76.74,7.72-1.62A21.72,21.72,0,0,0,32,292.7a81.91,81.91,0,0,0,4.23-8.44,38.42,38.42,0,0,1,4.92-8.34,21,21,0,0,1,7.18-5.87q4.29-2.15,11.06-1.11a22.66,22.66,0,0,1,9.4,3.57,21.78,21.78,0,0,1,6.44,6.68,24.84,24.84,0,0,1,3.28,8.95,32.31,32.31,0,0,1,0,10.39,37.25,37.25,0,0,1-4.65,13.25,22.62,22.62,0,0,1-9.41,9.05Z"/><path class="cls-1" d="M65.6,227.05a8.2,8.2,0,0,1-6.34-.14,7.85,7.85,0,0,1-4.39-4.42,8,8,0,0,1,0-6.38,8.39,8.39,0,0,1,10.8-4.36,8.05,8.05,0,0,1,4.46,4.57,7.87,7.87,0,0,1-.1,6.24A8.2,8.2,0,0,1,65.6,227.05Z"/><path class="cls-1" d="M70.77,126.32l5.83-7.26L156,141.21l-7.51,9.34-19.35-5.8-22.58,28.12,9.91,17.56-7.5,9.35Zm49,15.73-36-10.76-.13.16,18.14,33Z"/><path class="cls-1" d="M137.71,60.65l22.54-14.2a31.36,31.36,0,0,1,11.2-4.71,20.47,20.47,0,0,1,9,.29,17.13,17.13,0,0,1,6.86,3.77,26.67,26.67,0,0,1,4.81,5.64,19.25,19.25,0,0,1,2.65,6.61,19.63,19.63,0,0,1,.13,7.13,21.06,21.06,0,0,1-2.53,7A20.43,20.43,0,0,1,187,78.29l36.62,17.78-10.87,6.85-34.08-18L169,91l17.79,28.25-8.69,5.47Zm26.48,22.77,11.41-7.18a36.14,36.14,0,0,0,4.77-3.57,16.15,16.15,0,0,0,3.49-4.29A9.68,9.68,0,0,0,185,63.29a12.41,12.41,0,0,0-2.16-6,12.4,12.4,0,0,0-4.51-4.55,9.64,9.64,0,0,0-5.09-1.16,16,16,0,0,0-5.38,1.3,35.84,35.84,0,0,0-5.28,2.76l-11.41,7.18Z"/><path class="cls-1" d="M247.6,18.35l-23.55,6.37-2.52-9.3L278.55,0l2.51,9.3-23.55,6.37L274.78,79.5l-9.92,2.68Z"/><path class="cls-1" d="M329.43,42.29A8.18,8.18,0,0,1,327,36.44a7.88,7.88,0,0,1,2.28-5.81,8,8,0,0,1,5.85-2.54,7.68,7.68,0,0,1,5.81,2.39,7.64,7.64,0,0,1,2.54,5.74,8,8,0,0,1-2.38,5.92,7.87,7.87,0,0,1-5.75,2.43A8.2,8.2,0,0,1,329.43,42.29Z"/><path class="cls-1" d="M423.85,6.57l9,2.44,11.46,81.6-11.56-3.14-2.43-20.06L395.5,58,383.37,74.09,371.81,71ZM429,57.75,424.51,20.5l-.21-.06L401.37,50.25Z"/><path class="cls-1" d="M510.66,41.45l22.09,14.89a31.21,31.21,0,0,1,8.83,8.34A20.29,20.29,0,0,1,544.94,73a17.24,17.24,0,0,1-.68,7.81,27.14,27.14,0,0,1-3.21,6.67,19.67,19.67,0,0,1-11.45,8.09,21.14,21.14,0,0,1-7.45.52,20.58,20.58,0,0,1-7.72-2.42l-1.49,40.68-10.64-7.18L505,88.72l-9.5-6.4L476.83,110l-8.51-5.74ZM500.52,74.87l11.18,7.54a37.73,37.73,0,0,0,5.19,2.92,16.25,16.25,0,0,0,5.33,1.46,9.59,9.59,0,0,0,5.13-1A12.46,12.46,0,0,0,532,81.38a12.41,12.41,0,0,0,2.35-6,9.76,9.76,0,0,0-1-5.12,16.32,16.32,0,0,0-3.36-4.4,37.26,37.26,0,0,0-4.66-3.72l-11.18-7.53Z"/><path class="cls-1" d="M612.91,161.13a21.34,21.34,0,0,0,.24-10.36,24.17,24.17,0,0,0-4.33-9.47,27.18,27.18,0,0,0-8.91-7.83,26.61,26.61,0,0,0-10.59-3.13,30.1,30.1,0,0,0-11.27,1.32,35,35,0,0,0-10.84,5.62,33.26,33.26,0,0,0-7.9,8.36,28.54,28.54,0,0,0-4.17,10.11,26,26,0,0,0,.22,11,28.72,28.72,0,0,0,5.26,10.9,23.71,23.71,0,0,0,9,7.54,24.65,24.65,0,0,0,11,2.15v10.85a33.71,33.71,0,0,1-4.49-.36,30.22,30.22,0,0,1-6.92-1.89,40.09,40.09,0,0,1-8.19-4.48,36.22,36.22,0,0,1-8.25-8.19,37.52,37.52,0,0,1-7-15,39.68,39.68,0,0,1,14.87-39.67,44.43,44.43,0,0,1,14.68-7.45,38.37,38.37,0,0,1,15.12-1.27,36.24,36.24,0,0,1,14.21,4.9,42,42,0,0,1,12.05,11,39.18,39.18,0,0,1,6.54,13.49,27.41,27.41,0,0,1,0,14.79Z"/><path class="cls-1" d="M656.74,210.13l3,9.84-30.13,9,11.29,37.61,30.13-9,2.95,9.84-72.56,21.77-3-9.84,33.2-10-11.28-37.61-33.21,10-3-9.84Z"/><path class="cls-1" d="M679.61,325.74l.18,10.27-75.74,1.34-.18-10.27Z"/><path class="cls-1" d="M662.85,405.93l5.49-23.77,9.38,2.16-13.28,57.56-9.38-2.17,5.48-23.77-64.43-14.86,2.31-10Z"/><path class="cls-1" d="M644.28,489.66l-24.77,42.16-8.3-4.88,19.56-33.3L611.31,482.2l-18.21,31-8.31-4.88,18.21-31L582.06,465l-20.54,35-8.3-4.88L579,451.29Z"/><path class="cls-1" d="M531.24,599.17a21.15,21.15,0,0,0,10.35-.42,24.12,24.12,0,0,0,9.18-4.91,27.18,27.18,0,0,0,7.25-9.38,26.63,26.63,0,0,0,2.47-10.77,29.92,29.92,0,0,0-2-11.16,35,35,0,0,0-6.28-10.47,33.41,33.41,0,0,0-8.85-7.36A28.36,28.36,0,0,0,533,541.17a26.13,26.13,0,0,0-10.92.9A29,29,0,0,0,511.51,548a23.61,23.61,0,0,0-6.95,9.48,24.67,24.67,0,0,0-1.47,11.12l-10.83.68a34.7,34.7,0,0,1,.09-4.5,29.85,29.85,0,0,1,1.45-7,40,40,0,0,1,3.95-8.46,36.4,36.4,0,0,1,7.66-8.74A37.39,37.39,0,0,1,520,532.61,39.74,39.74,0,0,1,560.47,545a44.57,44.57,0,0,1,8.35,14.19,38.48,38.48,0,0,1,2.22,15,36.16,36.16,0,0,1-4,14.49,41.68,41.68,0,0,1-10.24,12.72,39.4,39.4,0,0,1-13,7.37,27.46,27.46,0,0,1-14.76,1Z"/><path class="cls-1" d="M468.12,641.61l22.61-9.16,3.62,8.93L439.6,663.55,436,654.62l22.61-9.16-24.82-61.29,9.52-3.85Z"/><path class="cls-1" d="M381.82,614.79a16.9,16.9,0,0,0-7.64-5.48,21.3,21.3,0,0,0-9.08-1.16,18.22,18.22,0,0,0-5.15,1.27,16.12,16.12,0,0,0-4.63,2.84,13.1,13.1,0,0,0-3.21,4.27,10.5,10.5,0,0,0-.89,5.56,8.17,8.17,0,0,0,3.38,6.41,23.88,23.88,0,0,0,7.22,3.21q4.24,1.17,9.22,2.17a36,36,0,0,1,9.31,3.18,22,22,0,0,1,7.5,6.25q3.16,4.07,3.83,11.41a20.12,20.12,0,0,1-4.7,14.4,25.12,25.12,0,0,1-7.47,5.89A29.59,29.59,0,0,1,368,678.15a41.14,41.14,0,0,1-12-.63,20.34,20.34,0,0,1-10.54-6l7.62-8.33a13.86,13.86,0,0,0,5.87,4.3,17.21,17.21,0,0,0,8.16,1.09,19.6,19.6,0,0,0,7-1.76,12.86,12.86,0,0,0,4.27-3.29,10.25,10.25,0,0,0,2-4,11.78,11.78,0,0,0,.36-3.8c-.3-3.19-1.44-5.56-3.44-7.1a21.84,21.84,0,0,0-7.26-3.53,82.79,82.79,0,0,0-9.21-2.06,38.38,38.38,0,0,1-9.27-2.76,21,21,0,0,1-7.44-5.55q-3.12-3.65-3.74-10.46a22.63,22.63,0,0,1,1.18-10,21.86,21.86,0,0,1,4.93-7.86,24.8,24.8,0,0,1,7.89-5.34,32.25,32.25,0,0,1,10.09-2.53,37.37,37.37,0,0,1,14,1.31,22.66,22.66,0,0,1,11.05,6.94Z"/><path class="cls-1" d="M298.29,628.4a8.24,8.24,0,0,1,1.4,6.19,7.85,7.85,0,0,1-3.24,5.33,8,8,0,0,1-6.2,1.5,8.39,8.39,0,0,1-6.83-9.43,8,8,0,0,1,3.36-5.43,7.84,7.84,0,0,1,6.07-1.41A8.19,8.19,0,0,1,298.29,628.4Z"/></g></g></svg>