<svg xmlns="http://www.w3.org/2000/svg" width="300" height="67.94" viewBox="0 0 300 67.94"><defs><style>.cls-1{fill:#ccc;fill-rule:evenodd;}</style></defs><title>riba_logo</title><g id="Layer_2" data-name="Layer 2"><g id="Layer_1-2" data-name="Layer 1"><path class="cls-1" d="M256.05,9.13h6L263.9,1c-.29-.1-2.11-.41-2.11-.41l-.63,3.16c-.32,0-.78-.07-1.13-.1l-.42,2.76-1.45-.1.24-2.82c-.63,0-.62-.08-1.06-.08L257.49,0H254.6l.16,3.41c-.45,0-.43.06-1.07.08l.24,2.82-1.45.1-.41-2.76c-.35,0-.82.06-1.14.1L250.3.59s-1.82.31-2.11.41L250,9.13Z"/><path class="cls-1" d="M259.16,60.42h-6.6a1.2,1.2,0,1,0,0,2.4h6.6a1.2,1.2,0,0,0,0-2.4Z"/><polygon class="cls-1" points="250.21 63.11 261.48 63.11 261.48 67.81 250.21 67.81 250.21 63.11 250.21 63.11"/><path class="cls-1" d="M260.26,64.23h-8.93v2.49h9.06V64.23Zm-.13.25v2h-8.54v-2Z"/><path class="cls-1" d="M255.93,39.11l-1.63,1.64L252.59,39v3.28L254.3,44l1.63-1.63,1.67,1.67,1.67-1.67V39.11l-1.67,1.67-1.67-1.67Z"/><path class="cls-1" d="M255.93,42.75l-1.63,1.63-1.71-1.7V46l1.71,1.7L255.93,46l1.67,1.67L259.27,46V42.75l-1.67,1.67-1.67-1.67Z"/><path class="cls-1" d="M255.93,35.48l-1.63,1.63-1.71-1.71v3.28l1.71,1.71,1.63-1.64,1.67,1.67,1.67-1.67V35.48l-1.67,1.67-1.67-1.67Z"/><path class="cls-1" d="M255.93,46.39,254.3,48l-1.71-1.7v3.27l1.71,1.71,1.63-1.64,1.67,1.68,1.67-1.67V46.39l-1.67,1.67-1.67-1.67Z"/><path class="cls-1" d="M255.93,50l-1.63,1.64L252.59,50v3.28l1.71,1.71,1.63-1.64L257.6,55l1.67-1.67V50L257.6,51.7,255.93,50Z"/><path class="cls-1" d="M255.93,31.84l-1.63,1.63-1.71-1.7V35l1.71,1.71,1.63-1.64,1.67,1.68,1.67-1.67V31.84l-1.67,1.67-1.67-1.67Z"/><path class="cls-1" d="M255.93,53.66,254.3,55.3l-1.71-1.71v3.28l1.71,1.7,1.63-1.63,1.67,1.67,1.67-1.67V53.66l-1.67,1.67-1.67-1.67Z"/><path class="cls-1" d="M255.93,13.65l-1.63,1.64-1.71-1.71v3.28l1.71,1.7,1.63-1.63,1.67,1.67,1.67-1.67V13.65l-1.67,1.67-1.67-1.67Z"/><path class="cls-1" d="M254.3,14.93l1.63-1.64L257.6,15l1.67-1.67V12.06h-6.68v1.16l1.71,1.71Z"/><path class="cls-1" d="M255.93,28.2l-1.63,1.64-1.71-1.71v3.28l1.71,1.7,1.63-1.63,1.67,1.67,1.67-1.67V28.2l-1.67,1.67-1.67-1.67Z"/><path class="cls-1" d="M257.6,59l-1.67-1.67-1.63,1.63-1.71-1.7v2.91h6.68V57.3L257.6,59Z"/><path class="cls-1" d="M255.93,24.56,254.3,26.2l-1.71-1.71v3.28l1.71,1.71,1.63-1.64,1.67,1.67,1.67-1.67V24.57l-1.67,1.66-1.67-1.67Z"/><path class="cls-1" d="M255.93,17.29l-1.63,1.63-1.71-1.7V20.5l1.71,1.7,1.63-1.64,1.67,1.68,1.67-1.67V17.29L257.6,19l-1.67-1.67Z"/><path class="cls-1" d="M255.93,20.93l-1.63,1.63-1.71-1.7v3.27l1.71,1.71,1.63-1.64,1.67,1.67,1.67-1.66V20.93L257.6,22.6l-1.67-1.67Z"/><path class="cls-1" d="M263.37,4.28l.05-.25a38.79,38.79,0,0,0-7.37-.72,36.76,36.76,0,0,0-7.37.72l0,.25.9-.16.48,2.47c-.36,0-.66.11-.9.15l0,.25c.53-.1,1.42-.24,2.51-.35l.39,2.84.25,0L252,6.62c.75-.08,1.57-.14,2.42-.17l.16,3.07.26,0-.16-3.06c.44,0,.9,0,1.35,0s.9,0,1.35,0l-.16,3.06.25,0,.16-3.07c.85,0,1.68.09,2.42.17l-.39,2.82.26,0,.38-2.84c1.09.11,2,.25,2.51.35l.05-.25-.9-.15.49-2.47.9.16Zm-13.49-.21a36.14,36.14,0,0,1,6-.51v2.6a43.2,43.2,0,0,0-5.55.39l-.49-2.48Zm11.85,2.48a43.37,43.37,0,0,0-5.56-.39V3.56a38.21,38.21,0,0,1,6,.52l-.48,2.47Z"/><path class="cls-1" d="M259.16,9.38h-6.6a1.21,1.21,0,0,0,0,2.41h6.6a1.21,1.21,0,0,0,0-2.41Z"/><path class="cls-1" d="M252.19,21.56c.6.24,1,.59.87,1.59a1,1,0,0,0-1.05-.29c-.34.09.11-.1.11-.1l.07-1.2Z"/><path class="cls-1" d="M252.3,26.06c1.24.31,1.42.69,1.42.69s-.24.37-1.39.66l0-1.35Z"/><path class="cls-1" d="M252.1,30.6a.79.79,0,0,0,.82-.21s.5,1.06-.82,1.42V30.6Z"/><path class="cls-1" d="M252.09,43.92c.51.13,1.08.43,1.15.93a1.15,1.15,0,0,0-1,.51l-.13-1.44Z"/><path class="cls-1" d="M252.17,45.53a1,1,0,0,1,1.17.9,1.19,1.19,0,0,0-1,.58l-.18-1.48Z"/><path class="cls-1" d="M252.11,47.65c.61.09,1.12.37,1.2.85a1.1,1.1,0,0,0-.89.7l-.31-1.55Z"/><polygon class="cls-1" points="238.36 16.95 238.36 17.7 240.33 17.7 240.33 16.91 238.36 16.91 238.36 16.95 238.36 16.95"/><polygon class="cls-1" points="240.29 18.53 238.11 18.53 238.11 19.32 240.33 19.32 240.33 18.53 240.29 18.53 240.29 18.53"/><polygon class="cls-1" points="240.29 21.77 229.66 21.77 229.66 22.57 240.33 22.57 240.33 21.77 240.29 21.77 240.29 21.77"/><polygon class="cls-1" points="237.94 20.17 237.45 20.94 240.33 20.95 240.33 20.15 237.94 20.15 237.94 20.17 237.94 20.17"/><polygon class="cls-1" points="231.69 16.91 229.66 16.91 229.66 17.7 231.73 17.7 231.73 16.91 231.69 16.91 231.69 16.91"/><polygon class="cls-1" points="229.66 18.57 229.66 19.32 231.98 19.32 231.98 18.53 229.66 18.53 229.66 18.57 229.66 18.57"/><path class="cls-1" d="M229.65,23.44v.76h1.51a4.46,4.46,0,0,1,1-.72l.15-.07h-2.65v0Z"/><path class="cls-1" d="M229.71,26.56V25.07h.73a4.07,4.07,0,0,0-.73,1.49Z"/><polygon class="cls-1" points="232.12 20.15 229.66 20.15 229.66 20.95 232.64 20.94 232.14 20.15 232.12 20.15 232.12 20.15"/><polygon class="cls-1" points="236.03 20.55 236.03 18.8 236.47 18.43 236.75 18.72 236.55 20.43 236.03 20.55 236.03 20.55"/><path class="cls-1" d="M235.05,21.36a1.42,1.42,0,0,1-.65-1.23v-1.6h1.29v1.6a1.44,1.44,0,0,1-.64,1.23Z"/><polygon class="cls-1" points="234.07 20.55 234.07 18.8 233.63 18.43 233.36 18.72 233.55 20.43 234.07 20.55 234.07 20.55"/><path class="cls-1" d="M252.26,30.92a.63.63,0,0,1-.35-1l.18-.28a.8.8,0,0,0,0-.8,1.17,1.17,0,0,1-.81.18.43.43,0,0,1,.14.25c.07.24-.16.42-.45.36a1.43,1.43,0,0,1-.87-.6,1.89,1.89,0,0,0-.56-.47,5.74,5.74,0,0,0-2.53-.23,8.22,8.22,0,0,1-1.82-.23c-.47-.13-.92-.38-.89-.7s.59-.51,1.18-.65,1.67-.3,2.42-.45a2.19,2.19,0,0,0,1.81-1.76,1.33,1.33,0,0,1,1.21-.91c.27,0,.59.09.54.34a.41.41,0,0,1-.18.3,1.1,1.1,0,0,1,.81.18.86.86,0,0,0,0-.87c-.13-.22-.19-.3-.21-.33a.56.56,0,0,1,.92-.62.82.82,0,0,0-.8-.76,1.26,1.26,0,0,0-1.37,1.22,2.07,2.07,0,0,0-1,.77c-.28.45-.38.95-.58,1.26-.31.48-.95.69-2,.69a15.36,15.36,0,0,1-3.68-.59,1.83,1.83,0,0,0-2.18.54,2.51,2.51,0,0,0,.19,2.24c.44.68,1.36,1.16,3.5,1.29a9.66,9.66,0,0,0,2.55-.25,3.52,3.52,0,0,1,1.88-.1,2.12,2.12,0,0,1,1.23,1.23A1.77,1.77,0,0,0,252,31.48a.72.72,0,0,0,.79-.66.65.65,0,0,1-.53.1Z"/><path class="cls-1" d="M251.1,26.7c0-.42.52-.68,1.14-.68a.81.81,0,0,0,.07-.45,1.08,1.08,0,0,0-1.17-.8c-.8,0-1.63.55-1.63,1.93s.83,1.93,1.63,1.93a1.08,1.08,0,0,0,1.17-.8.53.53,0,0,0-.08-.41c-.64,0-1.13-.21-1.13-.72Z"/><path class="cls-1" d="M233.33,27.21c0-.55.45-.63.82-.74a3.52,3.52,0,0,0,1.56-.93,2.27,2.27,0,0,1,1.56-.8,4.11,4.11,0,0,1,1.84.38c.7.3,1.38.63,1.3,1.33a2.91,2.91,0,0,0,.2,1.42.7.7,0,0,1-.36,1,4.14,4.14,0,0,1-2,.23,12.8,12.8,0,0,1-4-1c-.51-.22-1-.48-1-.88Z"/><path class="cls-1" d="M236.43,29.54a.41.41,0,0,1,.2.54,4.93,4.93,0,0,1-1.69,2.34,3.91,3.91,0,0,1-2,1.06c-.72,0-.94-.33-.94-.73v-.69a.68.68,0,0,1,.47-.65,3.33,3.33,0,0,0,2.23-1.68.66.66,0,0,1,.78-.48,3.54,3.54,0,0,1,1,.29Z"/><path class="cls-1" d="M238,24.21c-1.63-.18-1.89.21-2.87,1-.77.64-1.44.78-1.53.62-.18-.33.43-.77.69-1s0-.51-.37-.29a3.49,3.49,0,0,0-1.42,1.84h0v0A1.72,1.72,0,0,0,233,28a3.22,3.22,0,0,0,1,.56c.32.12.47.62.11,1.09a3.67,3.67,0,0,1-1.86,1.21,1,1,0,0,0-.76,1v5.35a.77.77,0,0,1-.75.87c-.55,0-.94.12-.94-.36V29.32c0-3.64,2.06-5.11,2.76-5.49a9.08,9.08,0,0,1,5.93-.59,6.6,6.6,0,0,1,3.05,1.42,1.81,1.81,0,0,0-.88.64A5.39,5.39,0,0,0,238,24.21Z"/><path class="cls-1" d="M240,30.88a3.47,3.47,0,0,1-2-.69c-.25-.22-.11-.54.29-.54a6.67,6.67,0,0,0,1.68-.07v1.3Z"/><path class="cls-1" d="M239.84,31.42c-.07.21-.21.51-.35.56a2.83,2.83,0,0,1-.7.1,1.26,1.26,0,0,1-.9-.32,7.47,7.47,0,0,1-.84-.76.43.43,0,0,1-.11-.58c.14-.25.39-.3.72,0a3.87,3.87,0,0,0,1,.62,3,3,0,0,0,1,.2c.11,0,.23.11.19.22Z"/><path class="cls-1" d="M239.12,33.62a2.2,2.2,0,0,1-1.52-.32,9.12,9.12,0,0,1-1.27-.95.57.57,0,0,1-.11-.8.48.48,0,0,1,.65-.16c.22.15.56.53.84.72a1.81,1.81,0,0,0,1.13.36,2.91,2.91,0,0,0,.57-.09c.22-.08.33,0,.29.37s-.25.8-.58.87Z"/><path class="cls-1" d="M238.42,34.05a3.46,3.46,0,0,1-1-.39,14,14,0,0,1-1.43-1,.47.47,0,0,0-.72.07c-.32.55.8,1.35,1.42,1.75a2.52,2.52,0,0,0,1.64.47.82.82,0,0,0,.85-.89,2,2,0,0,1-.72,0Z"/><path class="cls-1" d="M234.14,33.66a.52.52,0,0,1,.81,0A8.13,8.13,0,0,0,236.73,35a2.74,2.74,0,0,0,1.52.36.64.64,0,0,1-.14.55c-.22.25-.77.29-1.46.14a3.66,3.66,0,0,1-1.82-.94c-.47-.48-1-1.06-.69-1.42Z"/><path class="cls-1" d="M232.21,34.17c-.05-.15,0-.22.26-.18a2.68,2.68,0,0,0,.43,0,.72.72,0,0,1,.66.26A7.8,7.8,0,0,0,235,35.81a3.58,3.58,0,0,0,2.08.65.39.39,0,0,1,0,.47c-.18.26-.8.26-1.2.19a5.38,5.38,0,0,1-2.38-1.31,4.88,4.88,0,0,1-1.3-1.64Z"/><path class="cls-1" d="M232,35c.17-.07.32.08.55.38a6.16,6.16,0,0,0,1.61,1.47,3.71,3.71,0,0,0,2,.55c.32,0,.26.18-.14.29a4.91,4.91,0,0,1-2,0,2.89,2.89,0,0,1-1.66-1,1.59,1.59,0,0,1-.42-.9s-.07-.73.1-.8Z"/><path class="cls-1" d="M241.44,30.53a3.29,3.29,0,0,0-.95-1.06,1.33,1.33,0,0,0,.72-.59,2.42,2.42,0,0,0,1.8.77,4.74,4.74,0,0,0-1.57.88Z"/><path class="cls-1" d="M229.34,39.53c0-.92.56-.92.95-.92a2.38,2.38,0,0,1,1.36.58c.39.34.73.78.73,2.28s-.17,4.13,1.17,4.13c1.5,0,1.87.2,2.21,1.31a18.5,18.5,0,0,1,.46,5c0,2.19-1.12,6.27-2.67,6.27s-2.68-2-2.8-4.68a12.62,12.62,0,0,1,.85-5.32c.36-1.08.37-1.69,0-2.16a1.81,1.81,0,0,0-1.19-.63,1.18,1.18,0,0,1-1.1-1.34V39.53Z"/><path class="cls-1" d="M228.6,45.62V42.15c-.38.93-1.94,3.46-4.79,3.46a4.78,4.78,0,0,1-3.3-1.37,7.57,7.57,0,0,1-1.94-5.55l0-1.87c-.05-5.51,0-11.51-1.33-14.61-.57-1.36-1.52-3.1-3.65-3.1a1.62,1.62,0,0,0-1.7,1.53,1.52,1.52,0,0,0,1.53,1.53,1.44,1.44,0,0,0,.51-.09h0l.08,0a1.49,1.49,0,0,1,2,.86c1.37,2.76,1.24,9.16,1.3,13.94l0,1.94c.08,6.39,4.09,8.1,6.43,8.1a6.45,6.45,0,0,0,3-.67,2.37,2.37,0,0,1,1.3-.18.37.37,0,0,0,.45-.41Z"/><path class="cls-1" d="M235.77,45.64c.53,0,1-.14,1-1v-5c0-.39,0-.63-.24-.87a1,1,0,0,1-.34-.78l-.39.05v1s.44.14.44.92v4.95a.83.83,0,0,1-.45.77Z"/><path class="cls-1" d="M237.13,43c.1-.75,1.27-1.22,2.57-1.31a6,6,0,0,1,3.57.77,2,2,0,0,1,.6,2.31,1.59,1.59,0,0,1-1.35,1.1,1.71,1.71,0,0,1-1.2-.48,3.68,3.68,0,0,0-2.37-.83c-.68,0-2,.07-1.82-1.56Z"/><path class="cls-1" d="M242.49,51.15a9.31,9.31,0,0,0-.77-4.38,3.48,3.48,0,0,0-3.06-1.71c-1.79,0-2.17,1.18-2.06,1.9.25,1.51,1,1.8,1.7,1.8a4.71,4.71,0,0,0,2-.54c.54-.29.69,0,.73.39a17.75,17.75,0,0,1-.12,3.46,1,1,0,0,0,.31,1,1,1,0,0,0,.9,0,4.56,4.56,0,0,1,1.29-.07c.7-.05,1.22-.18,2.32-.23s3.17.11,4.33.11A2.15,2.15,0,0,0,252,51.48a2.1,2.1,0,0,0-.23-2.15,1.54,1.54,0,0,0-1.5-.41,1,1,0,0,1-.84-.05,1,1,0,0,1-.29-.89,2.22,2.22,0,0,1-1.41,1.55,5.76,5.76,0,0,1-2.38-.14c-.83-.2-.9-.63-.75-1.17a14,14,0,0,0,.26-3,2.64,2.64,0,0,0-.58-1.81,7.68,7.68,0,0,1-.17,3.79c-.39,1.66-.4,2-.21,2.39s1,.51,1.65.49c1.59-.06,3.82.45,4.3,1.26.28.47.05.79-.39.92s-1.57-.29-2-.4a5.19,5.19,0,0,0-3.55.26,1.9,1.9,0,0,1-.93.18c-.24,0-.66-.23-.56-1.11Z"/><path class="cls-1" d="M250.7,48.53c-.28-.1-1.25.42-1.12-.42a1.49,1.49,0,0,1,1.09-1.19,2,2,0,0,1,1.36.3c.14.11.12.18-.15.2-.51,0-1,.67-1.18,1.11Z"/><path class="cls-1" d="M251.55,45.76a1.42,1.42,0,0,0-1.58-.14,1.35,1.35,0,0,0-.31,1.58,1.94,1.94,0,0,1,1.26-.61s0-.15.26-.41.58-.21.37-.42Z"/><path class="cls-1" d="M253,46.21c0-.18-.41-.5-.93-.28a1.45,1.45,0,0,0-.63.68,1.58,1.58,0,0,1,.65.31,1.64,1.64,0,0,1,.91-.71Z"/><path class="cls-1" d="M250.73,45.1a1.65,1.65,0,0,1,1.22-.83,1.34,1.34,0,0,1,.87.36,1.32,1.32,0,0,0-.74.35,1.47,1.47,0,0,0-.35.56,1.39,1.39,0,0,0-1-.44Z"/><path class="cls-1" d="M251.18,48.57a1.28,1.28,0,0,1,.93-.57,1.11,1.11,0,0,1,.84.31,2,2,0,0,0-.87.81,1.85,1.85,0,0,0-.9-.55Z"/><path class="cls-1" d="M230.58,55.37a8.53,8.53,0,0,1-.27-2,14.38,14.38,0,0,1,.63-4.78c.5-1.61.56-1.94.22-2.36a1.8,1.8,0,0,0-1.19-.48c-.43-.05-.74,0-.82.44a26,26,0,0,0,0,7.93,4.67,4.67,0,0,0,.37,1.19,5.68,5.68,0,0,0-2.23.41,1,1,0,0,1-1.08,0,1.52,1.52,0,0,0-1.14-.25c-1.46.36-.82,2.38-.64,3.2a18.79,18.79,0,0,1,.07,3.91,14.7,14.7,0,0,0,.24,3.4,2.14,2.14,0,0,0,2.46,1.62,1.57,1.57,0,0,0,1.46-1.14c0-.39-.31-.46-.49-.13s-.12-1-.84-1c-.53,0-.9.49-1.31.28s-.37-1.8-.3-3.93a3.64,3.64,0,0,0-.44-2.26,2.93,2.93,0,0,1-.43-1.2,1.22,1.22,0,0,1,.19-.85.82.82,0,0,1,.88-.25,3.14,3.14,0,0,0,1.08.18,2.83,2.83,0,0,0,1.4-.48c.36-.23.71-.54.82-.61a2.58,2.58,0,0,1,1-.33.38.38,0,0,0,.29-.54Z"/><path class="cls-1" d="M226.45,65.17a2.36,2.36,0,0,1,1-.31c.47,0,.71.4.89.87a2.38,2.38,0,0,1,0-1.07,1.31,1.31,0,0,1,1-.81s-1.36.08-1.47-.65a13,13,0,0,1-.11-2.09,3,3,0,0,1,.88-1.6c.25-.26.41-.38,1-.3a15.74,15.74,0,0,0,3.65.59,2.08,2.08,0,0,0,1.94-2.42,1.93,1.93,0,0,1-.74.9,1.8,1.8,0,0,1-.9.87,2.64,2.64,0,0,1-1.56,0c.45,0,.91-.72.77-.77a2.69,2.69,0,0,1-1.72-1.62.69.69,0,0,0-.71-.39,3,3,0,0,0-1.88,1.09,2.86,2.86,0,0,0-.76,1.14,1.18,1.18,0,0,1-.52.76c-.24.16-1.16.33-1.06.91a13.89,13.89,0,0,1,0,2.81c0,1-.12,2.31.31,2.09Z"/><path class="cls-1" d="M228.81,64.66c.37-.62,1.53-.67,2-.6s1.22.4,1.36,1a1,1,0,0,0-.34.69c0,.4,0,.8-.08.81s-.08,0-.14-.36a1.56,1.56,0,0,0-.55-1c-.26-.24-.91-.31-.8,0a2.09,2.09,0,0,1,.11.93c0,.47-.37.87-.47.52a1.44,1.44,0,0,0-1.2-.9,1.31,1.31,0,0,1,.09-1Z"/><path class="cls-1" d="M232.57,65.37c-.31,0-.36.8-.36,1.13s.11.37.22.44a.52.52,0,0,1,.25.54c-.07.26,0,.48.26.26a1.58,1.58,0,0,0,.44-1.27c-.08-.4-.41-1.1-.81-1.1Z"/><path class="cls-1" d="M230.74,65.59c0-.22.34.23.43.48a2.77,2.77,0,0,1,.16,1.3c-.07.36-.16.48-.27.15s-.46-.55-.32-.84a1.62,1.62,0,0,0,0-1.09Z"/><path class="cls-1" d="M229,66.14a1.48,1.48,0,0,1,.59,1.13.68.68,0,0,1-.18.54c-.1.13-.19.12-.25-.18a1.2,1.2,0,0,0-.26-.62,1.1,1.1,0,0,0,.1-.87Z"/><polygon class="cls-1" points="235.4 9.43 234.63 9.43 234.7 11.39 235.38 11.39 235.46 9.43 235.4 9.43 235.4 9.43"/><polygon class="cls-1" points="236.6 9.69 235.94 11.48 236.56 11.74 237.39 9.96 236.62 9.64 236.6 9.69 236.6 9.69"/><polygon class="cls-1" points="238.28 10.59 237.03 12.03 237.52 12.49 238.93 11.12 238.32 10.54 238.28 10.59 238.28 10.59"/><polygon class="cls-1" points="239.45 11.91 237.82 12.89 238.14 13.48 239.9 12.61 239.5 11.88 239.45 11.91 239.45 11.91"/><polygon class="cls-1" points="240.13 13.62 238.25 13.95 238.34 14.62 240.3 14.43 240.18 13.61 240.13 13.62 240.13 13.62"/><polygon class="cls-1" points="238.37 15.31 238.37 16.06 240.33 16.07 240.33 15.27 238.37 15.27 238.37 15.31 238.37 15.31"/><polygon class="cls-1" points="233.42 9.66 232.7 9.96 233.53 11.74 234.16 11.48 233.47 9.64 233.42 9.66 233.42 9.66"/><polygon class="cls-1" points="231.72 10.54 231.15 11.07 232.57 12.49 233.06 12.03 231.76 10.5 231.72 10.54 231.72 10.54"/><polygon class="cls-1" points="230.51 11.9 230.14 12.59 231.95 13.48 232.27 12.89 230.54 11.86 230.51 11.9 230.51 11.9"/><polygon class="cls-1" points="229.83 13.66 229.72 14.43 231.75 14.62 231.84 13.95 229.84 13.61 229.83 13.66 229.83 13.66"/><polygon class="cls-1" points="231.69 15.27 229.66 15.27 229.66 16.07 231.72 16.06 231.72 15.27 231.69 15.27 231.69 15.27"/><path class="cls-1" d="M236.37,14.92c-.1-.12-.16-.11-.17.08a.84.84,0,0,1-.43.7,1,1,0,0,0-.54.81v1c0,.5.33.66.71.66s.91-.16.91-1.25a3.49,3.49,0,0,0-.48-2Z"/><path class="cls-1" d="M237.87,14.46a1.44,1.44,0,0,1-1.15.14c-.15-.07-.26,0-.11.14a2.89,2.89,0,0,1,.55,1.81c0,.22,0,.35,0,.42s.11.09.2,0a2.19,2.19,0,0,0,.75-1.85c0-.95-.24-.7-.24-.7Z"/><path class="cls-1" d="M233.72,14.92c.1-.12.15-.11.17.08a.84.84,0,0,0,.43.7,1,1,0,0,1,.54.81v1c0,.5-.33.66-.71.66s-.91-.16-.91-1.25a3.49,3.49,0,0,1,.48-2Z"/><path class="cls-1" d="M235.05,15.12h-.83a.14.14,0,0,1-.13-.13V13.78a.15.15,0,0,0-.13-.14h-1.58c-.06,0-.07-.08,0-.12a2.91,2.91,0,0,1,5.43,0s0,.12,0,.12h-1.58a.15.15,0,0,0-.13.14V15a.14.14,0,0,1-.13.13Z"/><path class="cls-1" d="M232.23,14.46a1.42,1.42,0,0,0,1.14.14c.16-.07.27,0,.12.14a2.89,2.89,0,0,0-.55,1.81c0,.22,0,.35,0,.42s-.11.09-.2,0a2.19,2.19,0,0,1-.75-1.85c0-.95.24-.7.24-.7Z"/><path class="cls-1" d="M253.33,26.73a3.48,3.48,0,0,1-1.13.4c-.12,0-.75.05-.75-.4s.48-.39.75-.39a3.06,3.06,0,0,1,1.13.39Z"/><path class="cls-1" d="M232.83,41.45v1.63c0,1,.14,2,.76,2,1.38,0,1.74.31,1.74.31.31,0,.36-.52.36-.83V40a.59.59,0,0,0-.26-.51l-.1-.06V38.29A3.56,3.56,0,0,1,232,37.18c-.06-.08-.16,0-.16.16s.06.94-.6,1a2.76,2.76,0,0,1,1,.74,3.73,3.73,0,0,1,.54,2.32Z"/><path class="cls-1" d="M234.16,39.8a0,0,0,0,0,.05.05h.65a0,0,0,0,0,0-.05v-.68a0,0,0,0,0,0,0h-.65a0,0,0,0,0-.05,0v.68Z"/><path class="cls-1" d="M234.16,41.37a.05.05,0,0,0,.05.05h.65a.05.05,0,0,0,0-.05v-.68a0,0,0,0,0,0,0h-.65a0,0,0,0,0-.05,0v.68Z"/><path class="cls-1" d="M234.16,42.86a0,0,0,0,0,.05,0h.65a0,0,0,0,0,0,0v-.68a0,0,0,0,0,0,0h-.65a0,0,0,0,0-.05,0v.68Z"/><path class="cls-1" d="M234.16,44.46a0,0,0,0,0,.05,0h.65a0,0,0,0,0,0,0v-.68a0,0,0,0,0,0-.05h-.65a0,0,0,0,0-.05.05v.68Z"/><path class="cls-1" d="M227.59,57.64a2.06,2.06,0,0,1-1.34,0c-.45-.14-.75-.08-.86.09a1.37,1.37,0,0,0,0,.89,2.37,2.37,0,0,0,.32.68c.09.13.26.13.43,0a1.85,1.85,0,0,1,.52-.27.72.72,0,0,0,.48-.38,4.23,4.23,0,0,1,.47-.9c.14-.17.11-.22,0-.16Z"/><path class="cls-1" d="M244,45.34a1.72,1.72,0,0,1-1.26,1,2.07,2.07,0,0,1-1-.18s1.08,1,1.16,3.95a10.72,10.72,0,0,1,0,1.13c0,.18-.07.78.59.54a9,9,0,0,1,2.47-.58,7.86,7.86,0,0,1,2.79.57c.42.13.6.06.69,0,.23-.27-.87-1.1-3.09-1.21l-1.78-.07a1.4,1.4,0,0,1-1-.6,3.18,3.18,0,0,1,0-1.88,16,16,0,0,0,.48-2.6Z"/><path class="cls-1" d="M259.69,21.56a1.28,1.28,0,0,0-.87,1.59,1,1,0,0,1,1-.29c.35.09-.1-.1-.1-.1l-.07-1.2Z"/><path class="cls-1" d="M259.58,26.06c-1.24.31-1.43.69-1.43.69s.24.37,1.39.66l0-1.35Z"/><path class="cls-1" d="M259.78,30.6a.8.8,0,0,1-.83-.21s-.49,1.06.82,1.42V30.6Z"/><path class="cls-1" d="M259.79,43.92c-.51.13-1.09.43-1.16.93a1.17,1.17,0,0,1,1,.51l.13-1.44Z"/><path class="cls-1" d="M259.71,45.53a1,1,0,0,0-1.17.9,1.2,1.2,0,0,1,1,.58l.18-1.48Z"/><path class="cls-1" d="M259.77,47.65c-.61.09-1.12.37-1.21.85a1.11,1.11,0,0,1,.9.7l.31-1.55Z"/><polygon class="cls-1" points="273.52 16.91 271.55 16.91 271.55 17.7 273.52 17.7 273.52 16.91 273.52 16.91"/><polygon class="cls-1" points="271.55 18.53 271.55 19.32 273.77 19.32 273.77 18.53 271.59 18.53 271.55 18.53 271.55 18.53"/><polygon class="cls-1" points="271.55 21.77 271.55 22.57 282.22 22.57 282.22 21.77 271.59 21.77 271.55 21.77 271.55 21.77"/><polygon class="cls-1" points="273.93 20.15 271.55 20.15 271.55 20.95 274.43 20.94 273.94 20.17 273.93 20.15 273.93 20.15"/><polygon class="cls-1" points="280.15 16.91 280.15 17.7 282.22 17.7 282.22 16.91 280.19 16.91 280.15 16.91 280.15 16.91"/><polygon class="cls-1" points="282.22 18.53 279.89 18.53 279.89 19.32 282.22 19.32 282.22 18.53 282.22 18.53"/><path class="cls-1" d="M282.22,23.4h-2.65l.16.07a4.72,4.72,0,0,1,1,.72h1.5v-.8Z"/><path class="cls-1" d="M282.17,26.56V25.07h-.73a4.23,4.23,0,0,1,.73,1.49Z"/><polygon class="cls-1" points="279.73 20.15 279.24 20.94 282.22 20.95 282.22 20.15 279.75 20.15 279.73 20.15 279.73 20.15"/><polygon class="cls-1" points="275.85 20.55 275.85 18.8 275.4 18.43 275.13 18.72 275.33 20.43 275.85 20.55 275.85 20.55"/><path class="cls-1" d="M276.83,21.36a1.42,1.42,0,0,0,.65-1.23v-1.6h-1.29v1.6a1.44,1.44,0,0,0,.64,1.23Z"/><polygon class="cls-1" points="277.81 20.55 277.81 18.8 278.25 18.43 278.52 18.72 278.32 20.43 277.81 20.55 277.81 20.55"/><path class="cls-1" d="M259.62,30.92a.63.63,0,0,0,.35-1s-.14-.2-.18-.28a.8.8,0,0,1-.05-.8,1.17,1.17,0,0,0,.81.18.47.47,0,0,0-.15.25c-.06.24.16.42.45.36a1.4,1.4,0,0,0,.87-.6,1.94,1.94,0,0,1,.57-.47,5.7,5.7,0,0,1,2.53-.23,8.3,8.3,0,0,0,1.82-.23c.46-.13.92-.38.88-.7s-.58-.51-1.17-.65-1.67-.3-2.43-.45a2.2,2.2,0,0,1-1.81-1.76,1.31,1.31,0,0,0-1.21-.91c-.26,0-.58.09-.53.34a.41.41,0,0,0,.18.3,1.1,1.1,0,0,0-.81.18.83.83,0,0,1,.05-.87,1.65,1.65,0,0,1,.21-.33.56.56,0,0,0-.92-.62.82.82,0,0,1,.8-.76,1.25,1.25,0,0,1,1.36,1.22,2,2,0,0,1,1.05.77c.29.45.39.95.59,1.26.31.48.94.69,2,.69a15.28,15.28,0,0,0,3.68-.59,1.85,1.85,0,0,1,2.19.54,2.48,2.48,0,0,1-.2,2.24c-.43.68-1.36,1.16-3.49,1.29a9.62,9.62,0,0,1-2.55-.25,3.55,3.55,0,0,0-1.89-.1,2.11,2.11,0,0,0-1.22,1.23,1.77,1.77,0,0,1-1.54,1.28.72.72,0,0,1-.79-.66.68.68,0,0,0,.54.1Z"/><path class="cls-1" d="M260.78,26.7c0-.42-.53-.68-1.14-.68a.73.73,0,0,1-.07-.45,1.07,1.07,0,0,1,1.16-.8c.8,0,1.64.55,1.64,1.93s-.84,1.93-1.64,1.93a1.06,1.06,0,0,1-1.16-.8.53.53,0,0,1,.08-.41c.64,0,1.13-.21,1.13-.72Z"/><path class="cls-1" d="M278.55,27.21c0-.55-.45-.63-.83-.74a3.49,3.49,0,0,1-1.55-.93,2.27,2.27,0,0,0-1.57-.8,4.07,4.07,0,0,0-1.83.38c-.71.3-1.39.63-1.31,1.33a2.8,2.8,0,0,1-.2,1.42.72.72,0,0,0,.36,1,4.18,4.18,0,0,0,2,.23,12.66,12.66,0,0,0,4-1c.51-.22,1-.48,1-.88Z"/><path class="cls-1" d="M275.44,29.54a.41.41,0,0,0-.19.54,4.85,4.85,0,0,0,1.69,2.34,3.88,3.88,0,0,0,2,1.06c.72,0,.95-.33.95-.73v-.69a.68.68,0,0,0-.47-.65,3.34,3.34,0,0,1-2.24-1.68.65.65,0,0,0-.77-.48,3.62,3.62,0,0,0-1,.29Z"/><path class="cls-1" d="M273.91,24.21c1.64-.18,1.9.21,2.88,1,.76.64,1.44.78,1.53.62.18-.33-.44-.77-.69-1s0-.51.36-.29a3.5,3.5,0,0,1,1.43,1.84h0v0a1.73,1.73,0,0,1-.53,1.6,3.06,3.06,0,0,1-1,.56c-.32.12-.48.62-.11,1.09a3.63,3.63,0,0,0,1.86,1.21,1,1,0,0,1,.76,1v5.35c0,.39.18.87.74.87s.94.12.94-.36V29.32c0-3.64-2.05-5.11-2.75-5.49a9.1,9.1,0,0,0-5.94-.59,6.55,6.55,0,0,0-3,1.42,1.81,1.81,0,0,1,.87.64,5.39,5.39,0,0,1,2.66-1.09Z"/><path class="cls-1" d="M271.84,30.88a3.42,3.42,0,0,0,2-.69c.25-.22.11-.54-.29-.54a6.59,6.59,0,0,1-1.67-.07v1.3Z"/><path class="cls-1" d="M272,31.42c.07.21.22.51.35.56a3,3,0,0,0,.7.1,1.28,1.28,0,0,0,.91-.32,7.27,7.27,0,0,0,.83-.76c.16-.17.26-.33.11-.58s-.38-.3-.71,0a3.93,3.93,0,0,1-1,.62,2.84,2.84,0,0,1-1,.2c-.1,0-.22.11-.19.22Z"/><path class="cls-1" d="M272.76,33.62a2.17,2.17,0,0,0,1.51-.32,8.69,8.69,0,0,0,1.28-.95.57.57,0,0,0,.11-.8.48.48,0,0,0-.65-.16c-.22.15-.57.53-.84.72a1.85,1.85,0,0,1-1.13.36,2.81,2.81,0,0,1-.57-.09c-.22-.08-.33,0-.3.37s.26.8.59.87Z"/><path class="cls-1" d="M273.46,34.05a3.46,3.46,0,0,0,1-.39,14,14,0,0,0,1.43-1,.46.46,0,0,1,.71.07c.33.55-.8,1.35-1.42,1.75a2.52,2.52,0,0,1-1.64.47.82.82,0,0,1-.85-.89,2.07,2.07,0,0,0,.73,0Z"/><path class="cls-1" d="M277.74,33.66a.52.52,0,0,0-.81,0A8.38,8.38,0,0,1,275.15,35a2.77,2.77,0,0,1-1.53.36.67.67,0,0,0,.15.55c.22.25.76.29,1.45.14a3.58,3.58,0,0,0,1.82-.94c.48-.48.95-1.06.7-1.42Z"/><path class="cls-1" d="M279.67,34.17c.05-.15,0-.22-.26-.18a2.72,2.72,0,0,1-.44,0,.71.71,0,0,0-.65.26,7.85,7.85,0,0,1-1.46,1.53,3.55,3.55,0,0,1-2.07.65.37.37,0,0,0,0,.47c.18.26.8.26,1.2.19a5.43,5.43,0,0,0,2.38-1.31,4.88,4.88,0,0,0,1.3-1.64Z"/><path class="cls-1" d="M279.9,35c-.17-.07-.33.08-.55.38a6.34,6.34,0,0,1-1.61,1.47,3.73,3.73,0,0,1-2,.55c-.33,0-.26.18.14.29a4.91,4.91,0,0,0,2,0,2.83,2.83,0,0,0,1.65-1,1.52,1.52,0,0,0,.42-.9s.08-.73-.09-.8Z"/><path class="cls-1" d="M270.44,30.53a3.14,3.14,0,0,1,.95-1.06,1.34,1.34,0,0,1-.73-.59,2.41,2.41,0,0,1-1.79.77,4.74,4.74,0,0,1,1.57.88Z"/><path class="cls-1" d="M282.54,39.53c0-.92-.57-.92-1-.92a2.41,2.41,0,0,0-1.36.58c-.38.34-.72.78-.72,2.28s.17,4.13-1.17,4.13c-1.5,0-1.87.2-2.21,1.31a18.5,18.5,0,0,0-.46,5c0,2.19,1.12,6.27,2.67,6.27s2.68-2,2.8-4.68a12.44,12.44,0,0,0-.86-5.32c-.35-1.08-.36-1.69,0-2.16a1.79,1.79,0,0,1,1.19-.63A1.17,1.17,0,0,0,282.53,44c0-.87,0-4.47,0-4.47Z"/><path class="cls-1" d="M283.28,45.62V42.15c.38.93,1.93,3.46,4.79,3.46a4.8,4.8,0,0,0,3.3-1.37,7.57,7.57,0,0,0,1.94-5.55l0-1.87c.05-5.51,0-11.51,1.33-14.61.57-1.36,1.52-3.1,3.64-3.1A1.62,1.62,0,0,1,300,20.64a1.53,1.53,0,0,1-1.53,1.53,1.44,1.44,0,0,1-.51-.09h0l-.08,0a1.5,1.5,0,0,0-2.06.86c-1.37,2.76-1.23,9.16-1.29,13.94l0,1.94c-.08,6.39-4.09,8.1-6.43,8.1a6.49,6.49,0,0,1-3-.67,2.36,2.36,0,0,0-1.3-.18.37.37,0,0,1-.44-.41Z"/><path class="cls-1" d="M276.11,45.64c-.53,0-1-.14-1-1v-5c0-.39,0-.63.24-.87a1,1,0,0,0,.34-.78l.39.05v1s-.44.14-.44.92v4.95a.83.83,0,0,0,.45.77Z"/><path class="cls-1" d="M274.75,43c-.1-.75-1.27-1.22-2.58-1.31a6,6,0,0,0-3.57.77A2,2,0,0,0,268,44.8a1.59,1.59,0,0,0,1.34,1.1,1.72,1.72,0,0,0,1.21-.48,3.65,3.65,0,0,1,2.36-.83c.69,0,2,.07,1.83-1.56Z"/><path class="cls-1" d="M269.39,51.15a9.18,9.18,0,0,1,.77-4.38,3.46,3.46,0,0,1,3-1.71c1.8,0,2.18,1.18,2.06,1.9-.24,1.51-1,1.8-1.7,1.8a4.75,4.75,0,0,1-2-.54c-.53-.29-.69,0-.72.39a18.18,18.18,0,0,0,.11,3.46,1,1,0,0,1-.31,1,.93.93,0,0,1-.89,0,4.63,4.63,0,0,0-1.3-.07c-.69-.05-1.21-.18-2.31-.23s-3.17.11-4.33.11a2.23,2.23,0,0,1-1.72-3.51,1.56,1.56,0,0,1,1.51-.41,1,1,0,0,0,.84-.05,1,1,0,0,0,.29-.89,2.23,2.23,0,0,0,1.4,1.55,5.81,5.81,0,0,0,2.39-.14c.83-.2.9-.63.75-1.17a14,14,0,0,1-.26-3,2.63,2.63,0,0,1,.57-1.81,7.84,7.84,0,0,0,.17,3.79c.39,1.66.41,2,.21,2.39s-1,.51-1.64.49c-1.59-.06-3.82.45-4.3,1.26-.28.47-.05.79.39.92s1.57-.29,2-.4a5.16,5.16,0,0,1,3.54.26,1.94,1.94,0,0,0,.93.18c.24,0,.67-.23.57-1.11Z"/><path class="cls-1" d="M261.18,48.53c.28-.1,1.25.42,1.12-.42a1.51,1.51,0,0,0-1.1-1.19,2,2,0,0,0-1.35.3c-.14.11-.13.18.14.2.52,0,1,.67,1.19,1.11Z"/><path class="cls-1" d="M260.32,45.76a1.44,1.44,0,0,1,1.59-.14,1.34,1.34,0,0,1,.3,1.58,1.9,1.9,0,0,0-1.25-.61s0-.15-.26-.41-.58-.21-.38-.42Z"/><path class="cls-1" d="M258.93,46.21c0-.18.41-.5.93-.28a1.5,1.5,0,0,1,.63.68,1.52,1.52,0,0,0-.65.31,1.64,1.64,0,0,0-.91-.71Z"/><path class="cls-1" d="M261.15,45.1a1.66,1.66,0,0,0-1.23-.83,1.31,1.31,0,0,0-.86.36,1.32,1.32,0,0,1,.74.35,1.62,1.62,0,0,1,.35.56,1.36,1.36,0,0,1,1-.44Z"/><path class="cls-1" d="M260.7,48.57a1.28,1.28,0,0,0-.93-.57,1.1,1.1,0,0,0-.84.31,2,2,0,0,1,.87.81,1.85,1.85,0,0,1,.9-.55Z"/><path class="cls-1" d="M281.58,55.91a2.58,2.58,0,0,1,1.05.33c.11.07.46.38.82.61a2.83,2.83,0,0,0,1.4.48,3.14,3.14,0,0,0,1.08-.18.82.82,0,0,1,.88.25,1.27,1.27,0,0,1,.18.85,2.8,2.8,0,0,1-.43,1.2,3.63,3.63,0,0,0-.43,2.26c.07,2.13.23,3.67-.3,3.93s-.78-.25-1.31-.28c-.72,0-.61,1.4-.84,1s-.53-.26-.5.13a1.59,1.59,0,0,0,1.46,1.14A2.13,2.13,0,0,0,287.1,66a14,14,0,0,0,.25-3.4,18.79,18.79,0,0,1,.07-3.91c.18-.82.82-2.84-.64-3.2a1.51,1.51,0,0,0-1.14.25,1,1,0,0,1-1.08,0,5.72,5.72,0,0,0-2.23-.41,4.67,4.67,0,0,0,.37-1.19,25.72,25.72,0,0,0,0-7.93c-.07-.39-.38-.49-.81-.44a1.78,1.78,0,0,0-1.19.48c-.34.42-.28.75.21,2.36a14.13,14.13,0,0,1,.63,4.78,8,8,0,0,1-.27,2,.39.39,0,0,0,.29.54Z"/><path class="cls-1" d="M285.42,65.17a2.32,2.32,0,0,0-1-.31c-.47,0-.71.4-.89.87a2.38,2.38,0,0,0,0-1.07,1.31,1.31,0,0,0-1-.81s1.37.08,1.48-.65a13,13,0,0,0,.11-2.09,3,3,0,0,0-.88-1.6c-.26-.26-.41-.38-1-.3a15.83,15.83,0,0,1-3.65.59,2.08,2.08,0,0,1-1.94-2.42,1.86,1.86,0,0,0,.73.9,1.8,1.8,0,0,0,.9.87,2.67,2.67,0,0,0,1.57,0c-.46,0-.92-.72-.77-.77a2.73,2.73,0,0,0,1.72-1.62.69.69,0,0,1,.71-.39,3,3,0,0,1,1.87,1.09,2.78,2.78,0,0,1,.77,1.14,1.13,1.13,0,0,0,.51.76c.25.16,1.17.33,1.07.91a14.65,14.65,0,0,0,0,2.81c0,1,.13,2.31-.31,2.09Z"/><path class="cls-1" d="M283.07,64.66c-.37-.62-1.54-.67-2-.6s-1.22.4-1.37,1a1,1,0,0,1,.35.69c0,.4,0,.8.07.81s.08,0,.15-.36a1.6,1.6,0,0,1,.54-1c.27-.24.92-.31.81,0a2.09,2.09,0,0,0-.11.93c0,.47.37.87.47.52a1.43,1.43,0,0,1,1.19-.9,1.29,1.29,0,0,0-.08-1Z"/><path class="cls-1" d="M279.3,65.37c.31,0,.37.8.37,1.13s-.11.37-.22.44a.54.54,0,0,0-.26.54c.08.26,0,.48-.25.26a1.58,1.58,0,0,1-.44-1.27c.07-.4.4-1.1.8-1.1Z"/><path class="cls-1" d="M281.14,65.59c0-.22-.34.23-.44.48a2.76,2.76,0,0,0-.15,1.3c.07.36.15.48.26.15s.46-.55.33-.84a1.62,1.62,0,0,1,0-1.09Z"/><path class="cls-1" d="M282.85,66.14a1.49,1.49,0,0,0-.6,1.13.77.77,0,0,0,.18.54c.11.13.2.12.26-.18a1.19,1.19,0,0,1,.25-.62,1.13,1.13,0,0,1-.09-.87Z"/><polygon class="cls-1" points="276.42 9.43 276.5 11.39 277.18 11.39 277.25 9.43 276.42 9.43 276.42 9.43"/><polygon class="cls-1" points="275.26 9.64 274.49 9.96 275.31 11.74 275.94 11.48 275.28 9.69 275.26 9.64 275.26 9.64"/><polygon class="cls-1" points="273.56 10.54 272.95 11.12 274.36 12.49 274.85 12.03 273.56 10.54 273.56 10.54"/><polygon class="cls-1" points="272.38 11.88 271.98 12.61 273.74 13.48 274.06 12.89 272.43 11.91 272.38 11.88 272.38 11.88"/><polygon class="cls-1" points="271.69 13.61 271.58 14.43 273.53 14.62 273.63 13.95 271.75 13.62 271.69 13.61 271.69 13.61"/><polygon class="cls-1" points="273.51 15.27 271.55 15.27 271.55 16.07 273.51 16.06 273.51 15.27 273.51 15.27"/><polygon class="cls-1" points="278.4 9.64 277.72 11.48 278.35 11.74 279.17 9.96 278.46 9.66 278.4 9.64 278.4 9.64"/><polygon class="cls-1" points="280.12 10.5 278.82 12.03 279.31 12.49 280.73 11.07 280.16 10.54 280.12 10.5 280.12 10.5"/><polygon class="cls-1" points="281.33 11.86 279.6 12.89 279.93 13.48 281.74 12.59 281.33 11.86 281.33 11.86"/><polygon class="cls-1" points="282.04 13.61 280.04 13.95 280.13 14.62 282.16 14.43 282.05 13.66 282.04 13.61 282.04 13.61"/><polygon class="cls-1" points="280.15 15.27 280.15 16.06 282.22 16.07 282.22 15.27 280.19 15.27 280.15 15.27 280.15 15.27"/><path class="cls-1" d="M275.51,14.92c.09-.12.15-.11.17.08a.86.86,0,0,0,.42.7.94.94,0,0,1,.55.81v1c0,.5-.33.66-.71.66S275,18,275,17a3.48,3.48,0,0,1,.49-2Z"/><path class="cls-1" d="M274,14.46a1.42,1.42,0,0,0,1.14.14c.16-.07.26,0,.12.14a2.89,2.89,0,0,0-.55,1.81V17c0,.14-.12.09-.2,0a2.17,2.17,0,0,1-.75-1.85c0-.95.24-.7.24-.7Z"/><path class="cls-1" d="M278.15,14.92c-.09-.12-.15-.11-.16.08a.87.87,0,0,1-.43.7.94.94,0,0,0-.55.81v1c0,.5.34.66.72.66s.91-.16.91-1.25a3.41,3.41,0,0,0-.49-2Z"/><path class="cls-1" d="M276.83,15.12h.83a.13.13,0,0,0,.12-.13V13.78a.16.16,0,0,1,.14-.14h1.57c.06,0,.08-.08.06-.12a2.91,2.91,0,0,0-5.44,0s0,.12.06.12h1.58a.15.15,0,0,1,.13.14V15a.14.14,0,0,0,.13.13Z"/><path class="cls-1" d="M279.64,14.46a1.42,1.42,0,0,1-1.14.14c-.16-.07-.26,0-.12.14a2.88,2.88,0,0,1,.56,1.81c0,.22,0,.35,0,.42s.11.09.2,0a2.2,2.2,0,0,0,.74-1.85c0-.95-.24-.7-.24-.7Z"/><path class="cls-1" d="M258.55,26.73a3.48,3.48,0,0,0,1.13.4c.12,0,.74.05.74-.4s-.48-.39-.74-.39a3,3,0,0,0-1.13.39Z"/><path class="cls-1" d="M279,41.45v1.63c0,1-.13,2-.76,2-1.37,0-1.73.31-1.73.31-.31,0-.37-.52-.37-.83V40a.61.61,0,0,1,.26-.51l.11-.06V38.29a3.54,3.54,0,0,0,3.32-1.11c.07-.08.17,0,.17.16s-.07.94.59,1a2.76,2.76,0,0,0-1,.74,3.72,3.72,0,0,0-.55,2.32Z"/><path class="cls-1" d="M277.72,39.8a.05.05,0,0,1-.05.05H277a.05.05,0,0,1-.05-.05v-.68a.05.05,0,0,1,.05,0h.66a.05.05,0,0,1,.05,0v.68Z"/><path class="cls-1" d="M277.72,41.37a.06.06,0,0,1-.05.05H277a.06.06,0,0,1-.05-.05v-.68a.05.05,0,0,1,.05,0h.66a.05.05,0,0,1,.05,0v.68Z"/><path class="cls-1" d="M277.72,42.86a.05.05,0,0,1-.05,0H277a.05.05,0,0,1-.05,0v-.68a.05.05,0,0,1,.05,0h.66a.05.05,0,0,1,.05,0v.68Z"/><path class="cls-1" d="M277.72,44.46a.05.05,0,0,1-.05,0H277a.05.05,0,0,1-.05,0v-.68a.05.05,0,0,1,.05-.05h.66a.05.05,0,0,1,.05.05v.68Z"/><path class="cls-1" d="M284.28,57.64a2.09,2.09,0,0,0,1.35,0c.44-.14.74-.08.86.09a1.37,1.37,0,0,1,0,.89,2.67,2.67,0,0,1-.32.68c-.09.13-.26.13-.43,0a1.89,1.89,0,0,0-.53-.27.74.74,0,0,1-.48-.38,4.22,4.22,0,0,0-.46-.9c-.15-.17-.11-.22,0-.16Z"/><path class="cls-1" d="M267.87,45.34a1.76,1.76,0,0,0,1.27,1,2.09,2.09,0,0,0,1-.18s-1.09,1-1.17,3.95c0,.44,0,.72,0,1.13,0,.18.07.78-.58.54a9.06,9.06,0,0,0-2.48-.58,7.92,7.92,0,0,0-2.79.57c-.42.13-.59.06-.68,0-.23-.27.86-1.1,3.08-1.21l1.79-.07a1.4,1.4,0,0,0,1-.6,3.12,3.12,0,0,0,0-1.88,17.13,17.13,0,0,1-.48-2.6Z"/><path class="cls-1" d="M245.32,27.47c0,.19.94.53,2.55.41a4.14,4.14,0,0,1,1.32.1,3.1,3.1,0,0,1-.16-1.45,10,10,0,0,1-1.32.41c-.69.12-2.39.25-2.39.53Z"/><path class="cls-1" d="M266.66,27.47c0,.19-.94.53-2.54.41a4.12,4.12,0,0,0-1.32.1,3.16,3.16,0,0,0,.15-1.45,10,10,0,0,0,1.32.41c.7.12,2.39.25,2.39.53Z"/><path class="cls-1" d="M12.44,36.53v-26a16.71,16.71,0,0,1,3.71-.33C28,10.19,31,18.3,31,24.14c0,7.91-4.12,12.39-15.15,12.39ZM158.74,9.22a5.24,5.24,0,0,1,4.93,2.59L148,59c-1.73,5.19-3.79,8-7.91,8.32v.66h14.6v-.66c-2.47,0-4.78-.49-4.78-4.11a19.71,19.71,0,0,1,1-4.78l6.47-19.76h15.95l7.41,20.91a1.85,1.85,0,0,0,.16.5,13.82,13.82,0,0,1,.74,3.62c0,3.87-3.62,3.62-6.18,3.62v.66h19.36v-.66c-2.88-.24-5.1-.41-8-8.56L169.07,8.66H158.75v.56Zm-.68,27.17L164.9,15.5h.16l7.41,20.89Zm-54.78.12V11.34a16.53,16.53,0,0,1,5.28-.9c7,0,11.94,6.31,11.94,13.55a12.59,12.59,0,0,1-6.59,11.53c-1.15.57-2.8,1-6.76,1ZM113,67.86c1,0,7.75-.08,11.86-2.4a15,15,0,0,0,7.83-13,14.45,14.45,0,0,0-4.86-10.86c-3.62-3.37-8.36-4.14-13.26-4.58v-.16c7.25-1.9,12.77-6.42,12.77-14S120.58,8.62,110.2,8.62H90.84v.66h.74c3.38,0,5.61,2.39,5.61,6.67V60.69c0,4.7-2.89,6.51-5.53,6.51h-.82v.66Zm-3.62-29.54c10.05,0,16.47,4.9,16.47,13.88a16.09,16.09,0,0,1-2.39,8.4c-1.89,3-5.43,5.45-11.61,5.45-8.57,0-8.57-4-8.57-7.09V38.32Zm-31.53-29c-3,0-6.34,1.4-6.34,6.43v45c0,5.11,3.71,6.51,6.34,6.51v.66H59.07V67.2c2.88,0,6.34-1.4,6.34-6.51v-45c0-5.52-3.79-6.43-6.34-6.43V8.62H77.85v.66Zm-77,.17c2.06,0,5.53,1.23,5.53,6.42V60.69c0,5.11-3.3,6.42-6.35,6.51v.66H18.87V67.2c-2.56-.09-6.43-1-6.43-6.51V38.1c4,0,9.47.25,15.65,10.47l7.09,12.61c.08.09,1.4,2.14,2.14,3.22,1.23,1.81,1.89,2.55,2.56,3.46H50.67V67.2C48.85,67,46,67,40.54,57.72l-5.36-10c-2.56-4.29-5.44-8.08-9.81-10.21v-.17C34,35.79,37.81,29.83,37.81,23.65c0-5.77-3.37-15-17.3-15H0v.83Z"/></g></g></svg>