<svg xmlns="http://www.w3.org/2000/svg" viewBox="0 0 42.8 42.8"><defs><style>.cls-1{fill:#e4e4e4;}</style></defs><g id="Layer_2" data-name="Layer 2"><g id="Layer_1-2" data-name="Layer 1"><path class="cls-1" d="M42.8,21.4c0,4.3,0,7.2-.1,8.8-.2,3.9-1.3,6.9-3.5,9a13.41,13.41,0,0,1-9,3.5c-1.6.1-4.6.1-8.8.1s-7.2,0-8.8-.1c-3.9-.2-6.9-1.3-9-3.5S.3,34.1.1,30.2C0,28.6,0,25.6,0,21.4s0-7.2.1-8.8c.2-3.9,1.3-6.9,3.5-9S8.7.3,12.6.1C14.2,0,17.2,0,21.4,0s7.2,0,8.8.1c3.9.2,6.9,1.3,9,3.5a13.41,13.41,0,0,1,3.5,9C42.7,14.2,42.8,17.1,42.8,21.4ZM23.5,3.8H16.4c-.7,0-1.6,0-2.7.1a12.31,12.31,0,0,0-2.9.3,8.3,8.3,0,0,0-2,.5A9.63,9.63,0,0,0,6.3,6.3,7.16,7.16,0,0,0,4.7,8.8a8.3,8.3,0,0,0-.5,2c-.1.8-.2,1.7-.3,2.9s-.1,2-.1,2.7v10c0,.7,0,1.6.1,2.7A12.31,12.31,0,0,0,4.2,32a19.27,19.27,0,0,0,.5,2,9.63,9.63,0,0,0,1.6,2.5,7.16,7.16,0,0,0,2.5,1.6,8.3,8.3,0,0,0,2,.5c.8.1,1.7.2,2.9.3s2,.1,2.7.1h10c.7,0,1.6,0,2.7-.1a12.31,12.31,0,0,0,2.9-.3,8.3,8.3,0,0,0,2-.5,9.63,9.63,0,0,0,2.5-1.6A7.16,7.16,0,0,0,38.1,34a8.3,8.3,0,0,0,.5-2c.1-.8.2-1.7.3-2.9s.1-2,.1-2.7v-10c0-.7,0-1.6-.1-2.7a12.31,12.31,0,0,0-.3-2.9,8.3,8.3,0,0,0-.5-2,9.63,9.63,0,0,0-1.6-2.5A7.16,7.16,0,0,0,34,4.7a8.3,8.3,0,0,0-2-.5c-.8-.1-1.7-.2-2.9-.3s-2-.1-2.7-.1Zm5.6,9.8a10.64,10.64,0,0,1,3.2,7.8,10.8,10.8,0,0,1-3.2,7.8,10.64,10.64,0,0,1-7.8,3.2,10.8,10.8,0,0,1-7.8-3.2,10.64,10.64,0,0,1-3.2-7.8,10.8,10.8,0,0,1,3.2-7.8,10.64,10.64,0,0,1,7.8-3.2A10.26,10.26,0,0,1,29.1,13.6ZM26.4,26.4a6.88,6.88,0,0,0,2.1-5,7.11,7.11,0,0,0-2.1-5.1,6.94,6.94,0,0,0-5.1-2.1,7.17,7.17,0,0,0-7.2,7.2,6.57,6.57,0,0,0,2.1,5,6.94,6.94,0,0,0,5.1,2.1A6.94,6.94,0,0,0,26.4,26.4ZM34.6,8.1a2.6,2.6,0,1,1-3.6,0,2.43,2.43,0,0,1,3.6,0Z"/></g></g></svg>